<?xml version="1.0" standalone="no"?>
<!DOCTYPE svg PUBLIC "-//W3C//DTD SVG 1.1//EN" "http://www.w3.org/Graphics/SVG/1.1/DTD/svg11.dtd" >
<svg>
<metadata>
Created by FontForge 20090914 at Wed Sep 19 15:31:35 2018
 By www-data
Copyright 1990-1998 Bitstream Inc.  All rights reserved.
</metadata>
<defs>
<font id="Square721BT-BoldCondensed" horiz-adv-x="1024" >
  <font-face 
    font-family="Square721 Cn BT"
    font-weight="700"
    font-stretch="condensed"
    units-per-em="2048"
    panose-1="2 11 8 6 3 5 2 6 2 4"
    ascent="1556"
    descent="-492"
    x-height="1049"
    cap-height="1485"
    bbox="-342 -483 2492 1974"
    underline-thickness="199"
    underline-position="-98"
    unicode-range="U+0020-U+F002"
  />
<missing-glyph horiz-adv-x="1229" 
d="M102 -362v1806h1024v-1806h-1024zM217 -248h795v1577h-795v-1577z" />
    <glyph glyph-name=".notdef" horiz-adv-x="1229" 
d="M102 -362v1806h1024v-1806h-1024zM217 -248h795v1577h-795v-1577z" />
    <glyph glyph-name="space" unicode=" " horiz-adv-x="512" 
 />
    <glyph glyph-name="exclam" unicode="!" horiz-adv-x="588" 
d="M139 465v1020h310v-1020h-310zM139 0v328h310v-328h-310z" />
    <glyph glyph-name="quotedbl" unicode="&#x22;" horiz-adv-x="678" 
d="M406 1438h192v-559h-192v559zM80 1438h192v-559h-192v559z" />
    <glyph glyph-name="numbersign" unicode="#" horiz-adv-x="1575" 
d="M709 848l-88 -244h251l86 244h-249zM709 1464h221l-146 -415h242l148 415h221l-148 -415h283l-74 -201h-280l-84 -242h290l-71 -200h-291l-148 -416h-221l148 416h-244l-149 -416h-220l146 416h-287l76 200h282l86 242h-299l74 201h297z" />
    <glyph glyph-name="dollar" unicode="$" 
d="M582 623l0.000976562 -415.999c40 4 68 13.667 84 29s24 39.666 24 72.999v185c0 36.667 -8.33301 65 -25 85s-44.334 34.667 -83.001 44zM454.001 930.001v359.999c-38.667 -3.33301 -66.334 -13.166 -83.001 -29.499s-25 -41.833 -25 -76.5v-129
c0 -36.667 8.83301 -65.167 26.5 -85.5s44.834 -33.5 81.501 -39.5zM455.001 4h-18.999c-137.333 0 -233 25.333 -287 76s-81 140.667 -81 270v135h276v-159c0 -41.333 8.16699 -70.666 24.5 -87.999s44.833 -27.666 85.5 -30.999l1 452
c-145.333 32 -243.833 72.333 -295.5 121s-77.5 124.667 -77.5 228v135c0 124.667 27.667 213 83 265s151.666 81 288.999 87l1 156h127v-156c146.667 -2.66699 245 -26.334 295 -71.001s75 -135 75 -271v-104h-268v122c0 39.333 -7.66699 67.833 -23 85.5
s-41.666 28.834 -78.999 33.501v-397c149.333 -38.667 248.666 -82.834 297.999 -132.501s74 -124.167 74 -223.5v-189c0 -120.667 -29 -207.834 -87 -261.501s-153 -81.167 -285 -82.5v-176h-127v176z" />
    <glyph glyph-name="percent" unicode="%" horiz-adv-x="1792" 
d="M1729 295c0 -123.333 -21.833 -206.333 -65.5 -249s-128.5 -64 -254.5 -64s-210.667 21.167 -254 63.5s-65 125.5 -65 249.5v321c0 124 21.5 207.333 64.5 250s127.833 64 254.5 64s211.667 -21.5 255 -64.5s65 -126.167 65 -249.5v-321zM1499 313v285
c0 42 -6 69.833 -18 83.5s-36 20.5 -72 20.5c-35.333 0 -58.833 -6.66699 -70.5 -20s-17.5 -41.333 -17.5 -84v-285c0 -42 5.83301 -69.833 17.5 -83.5s35.167 -20.5 70.5 -20.5c36 0 60 7 72 21s18 41.667 18 83zM469 885v286c0 42.667 -5.83301 70.834 -17.5 84.501
s-35.167 20.5 -70.5 20.5s-58.833 -6.83301 -70.5 -20.5s-17.5 -41.834 -17.5 -84.501v-286c0 -42.667 5.83301 -70.834 17.5 -84.501s35.167 -20.5 70.5 -20.5s58.833 6.83301 70.5 20.5s17.5 41.834 17.5 84.501zM700 868c0 -123.333 -21.833 -206.667 -65.5 -250
s-128.167 -65 -253.5 -65s-210 21.5 -254 64.5s-66 126.5 -66 250.5v322c0 123.333 21.667 206.333 65 249s128.333 64 255 64s211.5 -21.5 254.5 -64.5s64.5 -125.833 64.5 -248.5v-322zM449 -18.001l710 1521h182l-708 -1521h-184z" />
    <glyph glyph-name="ampersand" unicode="&#x26;" horiz-adv-x="1147" 
d="M680 338l-207 293.002c-23.333 0 -41.833 -10.167 -55.5 -30.5s-20.5 -48.5 -20.5 -84.5v-129c0 -70 8.33301 -112.333 25 -127s57.667 -22 123 -22c58.667 0 96.167 4.83301 112.5 14.5s24.5 28.5 24.5 56.5c0 7.33301 -0.166992 13.166 -0.5 17.499
s-0.833008 8.16602 -1.5 11.499zM926 -17.998l-61.998 81.002c-20 -27.333 -48.833 -47.666 -86.5 -60.999s-85.834 -20 -144.501 -20h-164c-145.333 0 -245.833 25.667 -301.5 77s-83.5 143.666 -83.5 276.999v178c0 110 19.5 192.167 58.5 246.5s99.5 84.166 181.5 89.499
l-35 47c-46 65.333 -77.667 119.666 -95 162.999s-26 86 -26 128c0 114.667 27 195.834 81 243.501s147 71.5 279 71.5c158.667 0 264.667 -20.333 318 -61s80 -120 80 -238v-114h-283v61c0 49.333 -5.83301 81.166 -17.5 95.499s-34.5 21.5 -68.5 21.5
c-30.667 0 -53.334 -6.33301 -68.001 -19s-22 -31.667 -22 -57c0 -12.667 3.33301 -27.167 10 -43.5s17 -35.833 31 -58.5l221 -357l-14 187h282v-527l156 -235z" />
    <glyph glyph-name="quotesingle" unicode="'" horiz-adv-x="352" 
d="M80 1438h192v-559h-192v559z" />
    <glyph glyph-name="parenleft" unicode="(" horiz-adv-x="739" 
d="M498 449c0 -84.667 9.83301 -142.668 29.5 -174.001s56.167 -51.333 109.5 -60v-233h-49c-154.667 0 -261.334 37.167 -320.001 111.5s-88 217.833 -88 430.5v434c0 212.667 29.333 356.334 88 431.001s165.334 112 320.001 112h49v-233
c-53.333 -8.66699 -89.833 -28.667 -109.5 -60s-29.5 -89.333 -29.5 -174v-585z" />
    <glyph glyph-name="parenright" unicode=")" horiz-adv-x="739" 
d="M246 1032c0 86 -9.83301 144.668 -29.5 176.001s-55.5 51.333 -107.5 60v233h49c154 0 260 -37.333 318 -112s87 -218.334 87 -431.001v-434c0 -212 -29 -355.333 -87 -430s-164 -112 -318 -112h-49v231c52 8 87.833 27.667 107.5 59s29.5 90.333 29.5 177v583z" />
    <glyph glyph-name="asterisk" unicode="*" horiz-adv-x="901" 
d="M451 907l129 88v144l-134 102l-127 -98v-150zM831 1165v-180h-227l141 -235l-190 -103l-104 225l-101 -225l-196 103l145 235h-227v180h227l-141 236l188 102l105 -227l102 227l197 -102l-146 -236h227z" />
    <glyph glyph-name="plus" unicode="+" horiz-adv-x="1706" 
d="M752 1221h202v-510h498v-199h-498v-512h-202v512h-498v199h498v510z" />
    <glyph glyph-name="comma" unicode="," horiz-adv-x="512" 
d="M225 0l-121 0.00292969v328h304v-353c0 -100.667 -24.667 -176.334 -74 -227.001s-124.333 -77.334 -225 -80.001v166c42 3.33301 72.167 15.333 90.5 36s27.5 53 27.5 97c0 3.33301 -0.333008 8.66602 -1 15.999s-1 13 -1 17z" />
    <glyph glyph-name="hyphen" unicode="-" horiz-adv-x="692" 
d="M76 408v256h540v-256h-540z" />
    <glyph glyph-name="period" unicode="." horiz-adv-x="512" 
d="M104 0v328h304v-328h-304z" />
    <glyph glyph-name="slash" unicode="/" horiz-adv-x="559" 
d="M-80 -190l483 1693h193l-485 -1693h-191z" />
    <glyph glyph-name="zero" unicode="0" 
d="M426 1147v-811.001c0 -41.333 5.83301 -69.166 17.5 -83.499s34.5 -21.5 68.5 -21.5s56.5 7 67.5 21s16.5 42 16.5 84v811c0 42 -5.5 69.833 -16.5 83.5s-33.5 20.5 -67.5 20.5s-56.833 -7.16699 -68.5 -21.5s-17.5 -41.833 -17.5 -82.5zM938 398.999
c0 -164 -28.833 -274.5 -86.5 -331.5s-170.834 -85.5 -339.501 -85.5s-281.834 28.5 -339.501 85.5s-86.5 167.5 -86.5 331.5v686c0 164 28.833 274.667 86.5 332s170.834 86 339.501 86s281.834 -28.667 339.501 -86s86.5 -168 86.5 -332v-686z" />
    <glyph glyph-name="one" unicode="1" 
d="M455 0v1241c-34 -54.667 -69.833 -108.5 -107.5 -161.5s-77.167 -104.833 -118.5 -155.5l-186 178c60 66 116 130.833 168 194.5s100.333 126.5 145 188.5h430v-1485h-331z" />
    <glyph glyph-name="two" unicode="2" 
d="M96 0l0.00390625 238.002c0 63.333 2.5 113.166 7.5 149.499s12.833 70.166 23.5 101.499c13.333 36.667 32.666 70 57.999 100s60.666 61 105.999 93c28.667 20 72.167 43.333 130.5 70s98.833 47.667 121.5 63c11.333 7.33301 19.5 18.333 24.5 33s7.5 33.667 7.5 57
v242c0 42.667 -4.33301 70.667 -13 84s-26 20 -52 20s-43.5 -6.66699 -52.5 -20s-13.5 -41.333 -13.5 -84v-201h-329v139c0 165.333 27.5 276.333 82.5 333s161.833 85 320.5 85c159.333 0 266.166 -28.167 320.499 -84.5s81.5 -167.5 81.5 -333.5v-186
c0 -84.667 -14.833 -149.5 -44.5 -194.5s-83.834 -86.5 -162.501 -124.5l-76 -36c-138 -63.333 -207 -135.333 -207 -216v-62h479v-266h-813z" />
    <glyph glyph-name="three" unicode="3" 
d="M106 1143c0 140.667 27.1709 235.834 81.5039 285.501s161.166 74.5 320.499 74.5c160 0 266.833 -24.5 320.5 -73.5s80.5 -144.5 80.5 -286.5v-117c0 -78 -13.5 -134.667 -40.5 -170s-74.833 -59.333 -143.5 -72c73.333 -9.33301 125.166 -33.833 155.499 -73.5
s45.5 -103.167 45.5 -190.5v-180c0 -140.667 -28 -235.5 -84 -284.5s-167.333 -73.5 -334 -73.5c-167.333 0 -278.833 24.5 -334.5 73.5s-83.5 143.833 -83.5 284.5v158h324v-162c0 -40.667 6.16699 -68.334 18.5 -83.001s36.166 -22 71.499 -22s58.833 7.16699 70.5 21.5
s17.5 42.166 17.5 83.499v199c0 44 -8.83301 73 -26.5 87s-58.834 21 -123.501 21h-123v244h115c58.667 0 97.667 8.33301 117 25s29 53.334 29 110.001v125c0 41.333 -5.83301 69 -17.5 83s-33.834 21 -66.501 21c-33.333 0 -55.666 -7.16699 -66.999 -21.5
s-17 -41.833 -17 -82.5v-94h-306v90z" />
    <glyph glyph-name="four" unicode="4" 
d="M287 559h278v739zM565 0v307h-520v357l332 821h506v-926h88v-252h-88v-307h-318z" />
    <glyph glyph-name="five" unicode="5" 
d="M922 340c0 -140.667 -27.501 -235.499 -82.501 -284.499s-164.167 -73.5 -327.5 -73.5c-165.333 0 -275.333 24.5 -330 73.5s-82 143.833 -82 284.5v121h316v-125c0 -42.667 5.66699 -70.834 17 -84.501s33.666 -20.5 66.999 -20.5s56 7.5 68 22.5s18 42.5 18 82.5v369
c0 41.333 -6.16699 69 -18.5 83s-36.166 21 -71.499 21c-37.333 0 -62.166 -7 -74.499 -21s-18.5 -41.667 -18.5 -83v-19h-288v799h749v-256h-446v-273c30.667 33.333 64.334 57.5 101.001 72.5s80 22.5 130 22.5c105.333 0 177.166 -24.167 215.499 -72.5
s57.5 -158.833 57.5 -331.5v-307z" />
    <glyph glyph-name="six" unicode="6" 
d="M430 606l-0.000976562 -270.003c0 -41.333 5.83301 -69.166 17.5 -83.499s34.5 -21.5 68.5 -21.5s56.5 6.5 67.5 19.5s16.5 41.5 16.5 85.5v270c0 42.667 -5.66699 70.834 -17 84.501s-33.666 20.5 -66.999 20.5c-34 0 -56.833 -7.16699 -68.5 -21.5
s-17.5 -42.166 -17.5 -83.499zM89.999 1161c0 134 27.1709 224.5 81.5039 271.5s163.833 70.5 328.5 70.5c100 0 174.667 -5.5 224 -16.5s88.666 -29.167 117.999 -54.5c24.667 -22 42 -49 52 -81s15 -90.333 15 -175v-74h-307v61c0 41.333 -5.66699 69.166 -17 83.499
s-34.333 21.5 -69 21.5c-34 0 -56.833 -7.16699 -68.5 -21.5s-17.5 -42.166 -17.5 -83.499v-305c40.667 32.667 79.667 56.167 117 70.5s79 21.5 125 21.5c55.333 0 102.666 -8.5 141.999 -25.5s70.333 -42.5 93 -76.5c12 -18.667 20.833 -49.5 26.5 -92.5
s8.5 -100.167 8.5 -171.5v-185c0 -164 -28.833 -274.5 -86.5 -331.5s-170.834 -85.5 -339.501 -85.5s-281.834 28.5 -339.501 85.5s-86.5 167.5 -86.5 331.5v762z" />
    <glyph glyph-name="seven" unicode="7" 
d="M213 0l291 1229h-410v256h742v-256l-287 -1229h-336z" />
    <glyph glyph-name="eight" unicode="8" 
d="M412 514v-176.001c0 -46 6.66699 -77 20 -93s40 -24 80 -24s66.667 7.83301 80 23.5s20 46.834 20 93.501v176c0 46.667 -6.66699 77.834 -20 93.501s-40 23.5 -80 23.5s-66.667 -7.83301 -80 -23.5s-20 -46.834 -20 -93.501zM416 1153v-172.001
c0 -46 6.33301 -76.333 19 -91s38.334 -22 77.001 -22c38 0 63.5 6.33301 76.5 19s19.5 37.334 19.5 74.001v20v172c0 46 -6.33301 76.333 -19 91s-38.334 22 -77.001 22c-38 0 -63.5 -6.5 -76.5 -19.5s-19.5 -37.167 -19.5 -72.5v-21zM733 771.998
c80 -14 135.501 -42.666 166.501 -85.999s46.5 -118.333 46.5 -225v-62c0 -164.667 -29.333 -275.334 -88 -332.001s-174 -85 -346 -85c-172.667 0 -288.5 28.5 -347.5 85.5s-88.5 167.5 -88.5 331.5v62c0 106.667 15.5 181.667 46.5 225s86.5 72 166.5 86
c-68.667 13.333 -117.667 40.833 -147 82.5s-44 106.5 -44 194.5v45c0 160 28.167 268.167 84.5 324.5s166.166 84.5 329.499 84.5c162.667 0 272 -28 328 -84s84 -164.333 84 -325v-45c0 -88 -14.667 -152.833 -44 -194.5s-78.333 -69.167 -147 -82.5z" />
    <glyph glyph-name="nine" unicode="9" 
d="M592 938v209c0 42 -5.5 69.833 -16.5 83.5s-33.5 20.5 -67.5 20.5c-34.667 0 -57.667 -6.66699 -69 -20s-17 -41.333 -17 -84v-209c0 -42 5.83301 -69.833 17.5 -83.5s34.5 -20.5 68.5 -20.5s56.5 6.83301 67.5 20.5s16.5 41.5 16.5 83.5zM934 324
c0 -134.667 -27.168 -225.33 -81.501 -271.997s-164.5 -70 -330.5 -70c-108.667 0 -188.334 5.16699 -239.001 15.5s-91 28.166 -121 53.499c-25.333 22 -43.333 48.833 -54 80.5s-16 90.167 -16 175.5v148h322v-133c0 -42 6 -70 18 -84s36 -21 72 -21s59.667 6.66699 71 20
s17 41.666 17 84.999v368c-40.667 -33.333 -79.5 -57 -116.5 -71s-78.167 -21 -123.5 -21c-55.333 0 -102.666 8.66699 -141.999 26s-70.333 42.666 -93 75.999c-12.667 20 -22 52 -28 96s-9 100.333 -9 169v120c0 164 28.833 274.667 86.5 332s170.834 86 339.501 86
s282.167 -28.667 340.5 -86s87.5 -168 87.5 -332v-761z" />
    <glyph glyph-name="colon" unicode=":" horiz-adv-x="578" 
d="M137 721v328h303v-328h-303zM137 0v328h303v-328h-303z" />
    <glyph glyph-name="semicolon" unicode=";" horiz-adv-x="578" 
d="M258 0l-121 0.000976562v328h303v-353c0 -101.333 -24.833 -177.333 -74.5 -228s-124.167 -77 -223.5 -79v166c41.333 3.33301 71.333 15.333 90 36s28 53 28 97c0 3.33301 -0.333008 8.66602 -1 15.999s-1 13 -1 17zM137 721.001v328h303v-328h-303z" />
    <glyph glyph-name="less" unicode="&#x3c;" horiz-adv-x="1706" 
d="M1442 1194v-219l-893 -365l893 -364v-219l-1178 485v199z" />
    <glyph glyph-name="equal" unicode="=" horiz-adv-x="1706" 
d="M254 496h1198v-199h-1198v199zM254 926h1198v-199h-1198v199z" />
    <glyph glyph-name="greater" unicode="&#x3e;" horiz-adv-x="1706" 
d="M264 1194l1178 -483v-199l-1178 -485v219l895 364l-895 365v219z" />
    <glyph glyph-name="question" unicode="?" horiz-adv-x="985" 
d="M287 465l-0.00195312 145.002c0 54.667 6.66699 97.667 20 129s36 58.666 68 81.999l17 13c70.667 52 115.334 87.333 134.001 106c10.667 11.333 18.167 24.833 22.5 40.5s6.5 41.167 6.5 76.5v102c0 41.333 -5.83301 69.166 -17.5 83.499s-34.5 21.5 -68.5 21.5
c-33.333 0 -55.666 -7 -66.999 -21s-17 -42 -17 -84v-119h-315v45c0 164.667 28.167 275.5 84.5 332.5s166.5 85.5 330.5 85.5c156.667 0 264.167 -23 322.5 -69s87.5 -130.667 87.5 -254v-156c0 -79.333 -9.83301 -138.333 -29.5 -177s-56.167 -76 -109.5 -112l-41 -26
c-71.333 -42.667 -107 -92 -107 -148v-96h-321zM288.998 0.00195312v328h319v-328h-319z" />
    <glyph glyph-name="at" unicode="@" horiz-adv-x="2048" 
d="M1167 272c-36.667 -56 -79 -97.1602 -127 -123.493s-104.667 -39.5 -170 -39.5c-105.333 0 -185.5 28.667 -240.5 86s-82.5 142 -82.5 254c0 159.333 46.5 293 139.5 401s207.5 162 343.5 162c53.333 0 99.666 -11 138.999 -33s71.666 -54.667 96.999 -98l53 98h178
l-147 -598c-2 -7.33301 -3.66699 -14.833 -5 -22.5s-2 -13.834 -2 -18.501c0 -23.333 8 -40.833 24 -52.5s39.667 -17.5 71 -17.5c26 0 53.167 6.66699 81.5 20s54.833 32 79.5 56c57.333 53.333 100.833 115.666 130.5 186.999s44.5 149.666 44.5 234.999
c0 160 -61.833 291.5 -185.5 394.5s-283.167 154.5 -478.5 154.5c-94 0 -181.5 -11.333 -262.5 -34s-154.5 -56.334 -220.5 -101.001c-113.333 -76 -200.5 -171 -261.5 -285s-91.5 -239 -91.5 -375c0 -204.667 69 -368.167 207 -490.5s322.333 -183.5 553 -183.5
c108 0 213.5 16.333 316.5 49s198.833 80 287.5 142l82 -117c-102 -76.667 -210.167 -134.334 -324.5 -173.001s-233.5 -58 -357.5 -58c-128 0 -245.667 16.167 -353 48.5s-202.666 80.166 -285.999 143.499c-103.333 80.667 -180.666 173.667 -231.999 279
s-77 224.666 -77 357.999c0 111.333 17.5 217.5 52.5 318.5s86.5 192.833 154.5 275.5c98.667 120.667 217.334 212 356.001 274s293 93 463 93c112.667 0 218.5 -15.167 317.5 -45.5s185.167 -73.166 258.5 -128.499c90 -70 157.167 -149.833 201.5 -239.5
s66.5 -190.834 66.5 -303.501c0 -110 -21.833 -211.5 -65.5 -304.5s-106.5 -172.5 -188.5 -238.5c-46.667 -37.333 -97.5 -65.833 -152.5 -85.5s-112.167 -29.5 -171.5 -29.5c-70.667 0 -123.834 14 -159.501 42s-54.167 69.333 -55.5 124zM1217 700.007
c-8.66699 54 -27.833 95.167 -57.5 123.5s-68.834 42.5 -117.501 42.5c-76 0 -142 -41.333 -198 -124s-84 -182 -84 -298c0 -61.333 13.5 -108 40.5 -140s66.167 -48 117.5 -48c55.333 0 105.833 21 151.5 63s76.834 96.667 93.501 164z" />
    <glyph glyph-name="A" unicode="A" horiz-adv-x="1063" 
d="M449 612h157l-76 701zM31 0l221 1485h553l227 -1485h-354l-41 365h-219l-41 -365h-346z" />
    <glyph glyph-name="B" unicode="B" horiz-adv-x="1094" 
d="M451 877h96c42.667 0 71 7.33301 85 22s21 42.667 21 84v133c0 41.333 -7 69.5 -21 84.5s-42.333 22.5 -85 22.5h-96v-346zM451 647v-386.999h104c42.667 0 71.167 7.5 85.5 22.5s21.5 43.167 21.5 84.5v172c0 41.333 -7.33301 69.666 -22 84.999s-43 23 -85 23h-104z
M1010 309.001c0 -118.667 -27.833 -199.832 -83.5 -243.499s-168.5 -65.5 -338.5 -65.5h-479v1485h462c170 0 283.167 -22.333 339.5 -67s84.5 -126 84.5 -244v-130c0 -82 -18 -143.833 -54 -185.5s-96.333 -69.834 -181 -84.501c84 -4 146.667 -30.5 188 -79.5
s62 -121.5 62 -217.5v-168z" />
    <glyph glyph-name="C" unicode="C" horiz-adv-x="999" 
d="M616 983l-0.000976562 150c0 42 -5.66699 69.833 -17 83.5s-34.333 20.5 -69 20.5c-34 0 -56.5 -6.66699 -67.5 -20s-16.5 -41.333 -16.5 -84v-783c0 -42.667 5.5 -70.667 16.5 -84s33.5 -20 67.5 -20c34.667 0 57.667 6.83301 69 20.5s17 41.5 17 83.5v203h316v-154
c0 -100 -5.16699 -172.167 -15.5 -216.5s-27.833 -81.833 -52.5 -112.5c-26 -32.667 -59.5 -55.5 -100.5 -68.5s-115.833 -19.5 -224.5 -19.5c-126.667 0 -212.667 6.5 -258 19.5s-83 35.833 -113 68.5c-28 30.667 -48 68.5 -60 113.5s-18 116.833 -18 215.5v686
c0 98.667 5.83301 170.334 17.5 215.001s31.834 82.334 60.501 113.001c30.667 33.333 71.167 56.666 121.5 69.999s133.5 20 249.5 20c99.333 0 171.5 -6.5 216.5 -19.5s80.5 -35.833 106.5 -68.5c25.333 -30.667 43.333 -68.834 54 -114.501s16 -117.5 16 -215.5v-102
h-316z" />
    <glyph glyph-name="D" unicode="D" horiz-adv-x="1085" 
d="M109 0v1485h438c176 0 294.667 -31.167 356 -93.5s92 -184.833 92 -367.5v-563c0 -182.667 -30.667 -305.167 -92 -367.5s-180 -93.5 -356 -93.5h-438zM639 365v753c0 40.667 -6 67.667 -18 81s-36.667 20 -74 20h-92v-955h92c36.667 0 61.167 6.83301 73.5 20.5
s18.5 40.5 18.5 80.5z" />
    <glyph glyph-name="E" unicode="E" horiz-adv-x="848" 
d="M109 0v1485h653v-266h-307v-328h288v-256h-288v-369h336v-266h-682z" />
    <glyph glyph-name="F" unicode="F" horiz-adv-x="815" 
d="M109 0v1485h651v-266h-305v-369h276v-266h-276v-584h-346z" />
    <glyph glyph-name="G" unicode="G" horiz-adv-x="1067" 
d="M977 807l-0.00195312 -408c0 -98.667 -5.83301 -170.5 -17.5 -215.5s-31.167 -82.833 -58.5 -113.5c-29.333 -32.667 -66.166 -55.5 -110.499 -68.5s-128.166 -19.5 -251.499 -19.5c-126.667 0 -212.667 6.5 -258 19.5s-83 35.833 -113 68.5
c-28 30.667 -48 68.5 -60 113.5s-18 116.833 -18 215.5v686c0 98.667 5.83301 170.334 17.5 215.001s31.834 82.334 60.501 113.001c30.667 33.333 71 56.666 121 69.999s133.333 20 250 20c109.333 0 189.166 -6.83301 239.499 -20.5s90.5 -36.834 120.5 -69.501
c27.333 -30 46.833 -67.333 58.5 -112s17.5 -116.667 17.5 -216v-77h-330v125c0 41.333 -6.83301 69 -20.5 83s-41.5 21 -83.5 21c-42.667 0 -70.834 -7 -84.501 -21s-20.5 -41.667 -20.5 -83v-783c0 -41.333 6.83301 -69 20.5 -83s41.834 -21 84.501 -21
c42 0 69.833 7 83.5 21s20.5 41.667 20.5 83v191h-98v266h430z" />
    <glyph glyph-name="H" unicode="H" horiz-adv-x="1090" 
d="M109 0v1485h346v-572h180v572h346v-1485h-346v647h-180v-647h-346z" />
    <glyph glyph-name="I" unicode="I" horiz-adv-x="580" 
d="M461 0h-346v1485h346v-1485z" />
    <glyph glyph-name="J" unicode="J" horiz-adv-x="887" 
d="M332 543v-243.997c0 -22.667 3.5 -37.834 10.5 -45.501s20.5 -11.5 40.5 -11.5c19.333 0 32.333 3.66699 39 11s10 22.666 10 45.999v1186h348v-1112c0 -151.333 -27.5 -254.333 -82.5 -309s-155.167 -82 -300.5 -82c-140 0 -236.667 23.167 -290 69.5
s-80 134.166 -80 263.499v228h305z" />
    <glyph glyph-name="K" unicode="K" horiz-adv-x="1057" 
d="M109 0v1485h337v-641l226 641h352l-283 -699l328 -786h-358l-265 676v-676h-337z" />
    <glyph glyph-name="L" unicode="L" horiz-adv-x="786" 
d="M109 0v1485h346v-1219h327v-266h-673z" />
    <glyph glyph-name="M" unicode="M" horiz-adv-x="1626" 
d="M111 0v1485h501l199 -1172l209 1172h493v-1485h-313l21 1255l-230 -1255h-383l-223 1255l25 -1255h-299z" />
    <glyph glyph-name="N" unicode="N" horiz-adv-x="1266" 
d="M109 0v1485h487l268 -1174l-20 1174h313v-1485h-485l-273 1206l23 -1206h-313z" />
    <glyph glyph-name="O" unicode="O" horiz-adv-x="1075" 
d="M631 350v783c0 41.333 -6.16699 69 -18.5 83s-36.833 21 -73.5 21c-37.333 0 -62.166 -7 -74.499 -21s-18.5 -41.667 -18.5 -83v-783c0 -42 6.16699 -69.833 18.5 -83.5s37.166 -20.5 74.499 -20.5c36.667 0 61.167 6.83301 73.5 20.5s18.5 41.5 18.5 83.5zM985 399
c0 -102 -5.66992 -174.833 -17.0029 -218.5s-31 -80.5 -59 -110.5c-30 -32.667 -67.667 -55.5 -113 -68.5s-131 -19.5 -257 -19.5c-126.667 0 -212.667 6.5 -258 19.5s-83 35.833 -113 68.5c-28 30.667 -48 68.5 -60 113.5s-18 116.833 -18 215.5v686
c0 98.667 5.83301 170.334 17.5 215.001s31.834 82.334 60.501 113.001c30.667 33.333 71.167 56.666 121.5 69.999s133.5 20 249.5 20c115.333 0 197.833 -6.66699 247.5 -20s89.834 -36.666 120.501 -69.999c28.667 -30.667 48.834 -68.334 60.501 -113.001
s17.5 -116.334 17.5 -215.001v-686z" />
    <glyph glyph-name="P" unicode="P" horiz-adv-x="1034" 
d="M455 422l-0.000976562 -422h-346v1485h348c212.667 0 353.5 -27.167 422.5 -81.5s103.5 -154.166 103.5 -299.499v-301c0 -142.667 -33.667 -241.834 -101 -297.501s-190.666 -83.5 -369.999 -83.5h-57zM634.999 801v315c0 41.333 -7 69.5 -21 84.5
s-41.333 22.5 -82 22.5h-77v-529h77c40.667 0 68 7.5 82 22.5s21 43.167 21 84.5z" />
    <glyph glyph-name="Q" unicode="Q" horiz-adv-x="1075" 
d="M647 557l0.000976562 576c0 41.333 -6.83301 69 -20.5 83s-41.5 21 -83.5 21c-42.667 0 -70.834 -7 -84.501 -21s-20.5 -41.667 -20.5 -83v-783c0 -41.333 6.83301 -69 20.5 -83s41.834 -21 84.501 -21c37.333 0 63.166 5.16699 77.499 15.5s22.5 28.833 24.5 55.5
l-160 215l101 115zM985.001 399l-0.00195312 -48.999c0 -51.333 -2.33301 -91.833 -7 -121.5s-12.667 -57.5 -24 -83.5l78 -110l-119 -109l-69 99c-24 -16 -58.5 -27.167 -103.5 -33.5s-127.833 -9.5 -248.5 -9.5c-158.667 0 -265.334 27.667 -320.001 83
s-82 166.666 -82 333.999v686c0 98.667 5.83301 170.334 17.5 215.001s31.834 82.334 60.501 113.001c30.667 33.333 71.167 56.666 121.5 69.999s133.5 20 249.5 20c115.333 0 197.833 -6.66699 247.5 -20s89.834 -36.666 120.501 -69.999
c28.667 -30.667 48.834 -68.334 60.501 -113.001s17.5 -116.334 17.5 -215.001v-686z" />
    <glyph glyph-name="R" unicode="R" horiz-adv-x="1090" 
d="M539 1223h-84v-459h84c44.667 0 74.5 7.5 89.5 22.5s22.5 42.833 22.5 83.5v246c0 41.333 -7.5 69.5 -22.5 84.5s-44.833 22.5 -89.5 22.5zM647 375c0 51.333 -9.50098 86.667 -28.501 106s-54.5 29 -106.5 29h-57v-510h-346v1485h360c213.333 0 354.333 -27 423 -81
s103 -154 103 -300v-170c0 -86 -18.667 -151.5 -56 -196.5s-98.333 -75.167 -183 -90.5c78.667 -11.333 136.834 -38 174.501 -80s56.5 -101.333 56.5 -178v-389h-340v375z" />
    <glyph glyph-name="S" unicode="S" horiz-adv-x="1020" 
d="M403 496l0.00195312 -144.001c0 -38.667 7.66699 -66 23 -82s41.333 -24 78 -24c40 0 67 7.66699 81 23s21 44.333 21 87v105c0 32 -2 55.667 -6 71s-10.667 29 -20 41c-22.667 27.333 -75 50 -157 68c-37.333 8 -66.333 15 -87 21c-96 27.333 -162 65.5 -198 114.5
s-54 126.167 -54 231.5v137c0 133.333 25.833 226.333 77.5 279s141.167 79 268.5 79h102c80 0 145.667 -6.83301 197 -20.5s91.666 -35.5 120.999 -65.5c23.333 -23.333 39.666 -53 48.999 -89s14 -93.667 14 -173v-115h-307v93c0 46.667 -6.16699 77.667 -18.5 93
s-37.5 23 -75.5 23c-36.667 0 -61.5 -7.16699 -74.5 -21.5s-19.5 -41.166 -19.5 -80.499v-96c0 -72.667 62 -124.667 186 -156c35.333 -9.33301 63.333 -17 84 -23c95.333 -26.667 160.833 -64 196.5 -112s53.5 -124 53.5 -228v-200c0 -124 -29.5 -213.333 -88.5 -268
s-155.167 -82 -288.5 -82h-92c-146.667 0 -247.5 25 -302.5 75s-82.5 142.333 -82.5 277v162h319z" />
    <glyph glyph-name="T" unicode="T" horiz-adv-x="840" 
d="M246 0v1219h-234v266h813v-266h-233v-1219h-346z" />
    <glyph glyph-name="U" unicode="U" horiz-adv-x="1067" 
d="M102 1485h347v-1131c0 -41.333 6 -69 18 -83s36.667 -21 74 -21c36.667 0 61.167 7 73.5 21s18.5 41.667 18.5 83v1131h332v-1006c0 -116 -6 -200.833 -18 -254.5s-32 -99.167 -60 -136.5c-30 -38.667 -70.833 -66 -122.5 -82s-129.167 -24 -232.5 -24
c-105.333 0 -183.333 8 -234 24s-90.667 43.333 -120 82c-27.333 36 -46.833 80.333 -58.5 133s-17.5 138.667 -17.5 258v1006z" />
    <glyph glyph-name="V" unicode="V" horiz-adv-x="1038" 
d="M240 0l-207 1485h356l127 -1301l131 1301h357l-209 -1485h-555z" />
    <glyph glyph-name="W" unicode="W" horiz-adv-x="1669" 
d="M1065 1485l137 -1235l92 1235h336l-174 -1485h-487l-135 1251l-134 -1251h-487l-176 1485h336l92 -1235l137 1235h463z" />
    <glyph glyph-name="X" unicode="X" horiz-adv-x="1010" 
d="M504 668l-125 -668h-344l188 784l-172 701h336l115 -608l125 608h331l-172 -701l189 -784h-346z" />
    <glyph glyph-name="Y" unicode="Y" horiz-adv-x="944" 
d="M301 0v481l-307 1004h350l143 -672l134 672h327l-301 -1004v-481h-346z" />
    <glyph glyph-name="Z" unicode="Z" horiz-adv-x="848" 
d="M43 0v266l391 953h-354v266h715v-236l-400 -983h400v-266h-752z" />
    <glyph glyph-name="bracketleft" unicode="[" horiz-adv-x="739" 
d="M197 0v1485h440v-230h-137v-1028h137v-227h-440z" />
    <glyph glyph-name="backslash" unicode="\" horiz-adv-x="559" 
d="M156 1503l483 -1693h-190l-484 1693h191z" />
    <glyph glyph-name="bracketright" unicode="]" horiz-adv-x="739" 
d="M541 1485v-1485h-441v227h138v1028h-138v230h441z" />
    <glyph glyph-name="asciicircum" unicode="^" horiz-adv-x="2048" 
d="M897 1460h252l481 -561h-235l-371 371l-373 -371h-235z" />
    <glyph glyph-name="underscore" unicode="_" 
d="M0 -279h1024v-204h-1024v204z" />
    <glyph glyph-name="grave" unicode="`" 
d="M219 1536h258l197 -371h-142z" />
    <glyph glyph-name="a" unicode="a" horiz-adv-x="915" 
d="M516 279v112c0 22.667 -6.5 40.334 -19.5 53.001s-31.167 19 -54.5 19s-41.333 -6.33301 -54 -19s-19 -30.334 -19 -53.001v-112c0 -23.333 6.33301 -41.166 19 -53.499s30.667 -18.5 54 -18.5s41.5 6.16699 54.5 18.5s19.5 30.166 19.5 53.499zM532 0
l0.000976562 84.001c-22.667 -36.667 -51.334 -62.834 -86.001 -78.501s-81 -23.5 -139 -23.5c-88 0 -149.5 20.667 -184.5 62s-52.5 115.333 -52.5 222v127c0 87.333 20 151.833 60 193.5s102.333 62.5 187 62.5c36.667 0 72 -5.16699 106 -15.5s65 -25.5 93 -45.5v155
c0 42.667 -4.83301 70.834 -14.5 84.501s-29.5 20.5 -59.5 20.5c-28.667 0 -47.667 -6.83301 -57 -20.5s-14 -41.834 -14 -84.501h-269v76c0 96 23.333 161.333 70 196s143 52 289 52c145.333 0 241.333 -17.333 288 -52s70 -100 70 -196v-819h-287z" />
    <glyph glyph-name="b" unicode="b" horiz-adv-x="952" 
d="M403 729v-412.001c0 -42.667 5.16699 -70.667 15.5 -84s30.5 -20 60.5 -20c29.333 0 49 6.66699 59 20s15 41.333 15 84v412c0 42.667 -5 70.834 -15 84.501s-29.667 20.5 -59 20.5c-30 0 -50.167 -7 -60.5 -21s-15.5 -42 -15.5 -84zM391 -0.000976562h-291.002v1511h303
v-569c24.667 42.667 55.834 74.167 93.501 94.5s83.834 30.5 138.501 30.5c84 0 143.5 -25.333 178.5 -76s52.5 -138.667 52.5 -264v-405c0 -126.667 -17 -215 -51 -265s-92 -75 -174 -75c-54 0 -100.167 11.5 -138.5 34.5s-75.5 61.833 -111.5 116.5v-133z" />
    <glyph glyph-name="c" unicode="c" horiz-adv-x="877" 
d="M813 414l0.000976562 -107.001c0 -126 -23.667 -211.667 -71 -257s-138.333 -68 -273 -68c-156 0 -261.5 28.5 -316.5 85.5s-82.5 165.5 -82.5 325.5v260c0 160.667 27.667 269.834 83 327.501s160.666 86.5 315.999 86.5c134.667 0 225.667 -22.667 273 -68
s71 -131.333 71 -258v-51h-285v39c0 42 -5 70 -15 84s-29.333 21 -58 21c-29.333 0 -49 -7 -59 -21s-15 -42 -15 -84v-412c0 -41.333 5 -69 15 -83s29.667 -21 59 -21c28.667 0 48 7 58 21s15 41.667 15 83v97h285z" />
    <glyph glyph-name="d" unicode="d" horiz-adv-x="952" 
d="M854 1511l0.000976562 -1511h-291v133c-35.333 -54.667 -72.333 -93.5 -111 -116.5s-85 -34.5 -139 -34.5c-82 0 -140.333 25.167 -175 75.5s-52 138.5 -52 264.5v405c0 124.667 17.833 212.5 53.5 263.5s95.5 76.5 179.5 76.5c55.333 0 101.666 -10.167 138.999 -30.5
s68.333 -51.833 93 -94.5v569h303zM399.001 729l-0.000976562 -412c0 -42.667 5 -70.667 15 -84s29.667 -20 59 -20c30.667 0 51.334 6.83301 62.001 20.5s16 41.5 16 83.5v412c0 42 -5.16699 70 -15.5 84s-30.5 21 -60.5 21s-50.167 -7 -60.5 -21s-15.5 -42 -15.5 -84z" />
    <glyph glyph-name="e" unicode="e" horiz-adv-x="934" 
d="M381 756l0.000976562 -100.999h192v101c0 44 -6 73 -18 87s-38 21 -78 21c-38.667 0 -64.334 -7.33301 -77.001 -22s-19 -43.334 -19 -86.001zM70.001 653.001c0 161.333 27.332 270.666 81.999 327.999s159.667 86 315 86c154.667 0 259.5 -28.667 314.5 -86
s82.5 -166.666 82.5 -327.999v-204h-483v-132c0 -42.667 6 -70.667 18 -84s36.667 -20 74 -20s62 7 74 21s18 41.667 18 83v23h299v-70c0 -110 -28.167 -185.5 -84.5 -226.5s-168.833 -61.5 -337.5 -61.5c-141.333 0 -238.666 29 -291.999 87s-80 166 -80 324v260z" />
    <glyph glyph-name="f" unicode="f" horiz-adv-x="616" 
d="M141 0l0.000976562 819h-96v230h96v151c0 113.333 24 193.5 72 240.5s129.333 70.5 244 70.5c23.333 0 46.166 -0.666992 68.499 -2s44.5 -3.33301 66.5 -6v-223c-1.33301 0 -3.66602 0.333008 -6.99902 1c-16.667 2 -28.667 3 -36 3c-34.667 0 -60.834 -8 -78.501 -24
s-26.5 -40 -26.5 -72v-139h148v-230h-148v-819h-303z" />
    <glyph glyph-name="g" unicode="g" horiz-adv-x="952" 
d="M852 29c0 -159.333 -24.999 -268.167 -74.999 -326.5s-140.333 -87.5 -271 -87.5c-153.333 0 -256.5 20.667 -309.5 62s-79.5 117 -79.5 227v6h262c0 -29.333 6.16699 -49.666 18.5 -60.999s34.166 -17 65.499 -17c34 0 56.833 6.66699 68.5 20s17.5 41.666 17.5 84.999
v153c-32 -32.667 -65.333 -56.167 -100 -70.5s-76.334 -21.5 -125.001 -21.5c-89.333 0 -151.666 24.333 -186.999 73s-53 137.667 -53 267v389c0 125.333 17.667 213.333 53 264s95.333 76 180 76c58 0 107 -11.833 147 -35.5s73 -60.167 99 -109.5v127h289v-1020z
M549.001 327.999v401.001c0 42 -5.16699 70 -15.5 84s-30.5 21 -60.5 21s-50.167 -7 -60.5 -21s-15.5 -42 -15.5 -84v-401c0 -42 5.16699 -70 15.5 -84s30.5 -21 60.5 -21c30.667 0 51 6.66699 61 20s15 41.666 15 84.999z" />
    <glyph glyph-name="h" unicode="h" horiz-adv-x="948" 
d="M98 0l-0.000976562 1511h303v-569c26 42.667 57.833 74.167 95.5 94.5s83.834 30.5 138.501 30.5c82 0 139.333 -22.5 172 -67.5s49 -128.833 49 -251.5v-748h-303v731c0 37.333 -5.5 62.666 -16.5 75.999s-30.833 20 -59.5 20s-48.5 -6.66699 -59.5 -20
s-16.5 -38.666 -16.5 -75.999v-731h-303z" />
    <glyph glyph-name="i" unicode="i" horiz-adv-x="494" 
d="M94 1270v241h303v-241h-303zM397 0h-303v1049h303v-1049z" />
    <glyph glyph-name="j" unicode="j" horiz-adv-x="508" 
d="M104 1270v241h306v-241h-306zM410 1049v-1129c0 -114 -20.167 -193.333 -60.5 -238s-110.5 -67 -210.5 -67c-10.667 0 -35.667 1.33301 -75 4c-24.667 2 -43.667 3.33301 -57 4l-1 236c39.333 2 65.5 10.833 78.5 26.5s19.5 55.834 19.5 120.501v1043h306z" />
    <glyph glyph-name="k" unicode="k" horiz-adv-x="872" 
d="M98 0v1511h295v-884l158 422h283l-168 -449l223 -600h-314l-182 551v-551h-295z" />
    <glyph glyph-name="l" unicode="l" horiz-adv-x="502" 
d="M403 0h-305v1511h305v-1511z" />
    <glyph glyph-name="m" unicode="m" horiz-adv-x="1395" 
d="M94 0l0.000976562 1049h281v-136c32 56 67.167 95.667 105.5 119s87.166 35 146.499 35c58 0 104.5 -12.5 139.5 -37.5s56.5 -60.833 64.5 -107.5c30 51.333 63.833 88.333 101.5 111s85.167 34 142.5 34c82 0 139 -22.167 171 -66.5s48 -128.5 48 -252.5v-748h-301v731
c0 38 -5.16699 63.5 -15.5 76.5s-29.5 19.5 -57.5 19.5s-47.333 -6.33301 -58 -19s-16 -35 -16 -67v-10v-731h-303v731c0 38 -5.33301 63.5 -16 76.5s-30 19.5 -58 19.5c-28.667 0 -48.5 -7 -59.5 -21s-16.5 -39 -16.5 -75v-731h-299z" />
    <glyph glyph-name="n" unicode="n" horiz-adv-x="944" 
d="M94 0l-0.000976562 1049h283v-136c30.667 54.667 65.834 94 105.501 118s89.167 36 148.5 36c82 0 139.333 -22.5 172 -67.5s49 -128.833 49 -251.5v-748h-303v731c0 37.333 -5.5 62.666 -16.5 75.999s-30.833 20 -59.5 20s-48.5 -6.66699 -59.5 -20
s-16.5 -38.666 -16.5 -75.999v-731h-303z" />
    <glyph glyph-name="o" unicode="o" horiz-adv-x="934" 
d="M381 729l0.000976562 -412.001c0 -41.333 5.66699 -69 17 -83s34.333 -21 69 -21c33.333 0 55.666 7 66.999 21s17 41.667 17 83v412c0 42 -5.5 70 -16.5 84s-33.5 21 -67.5 21s-56.833 -7.16699 -68.5 -21.5s-17.5 -42.166 -17.5 -83.499zM70.001 652.999
c0 161.333 27.333 270.665 82 327.998s159.667 86 315 86c154.667 0 259.5 -28.667 314.5 -86s82.5 -166.666 82.5 -327.999v-260c0 -160 -27.333 -268.5 -82 -325.5s-159.667 -85.5 -315 -85.5s-260.333 28.333 -315 85s-82 165.334 -82 326.001v260z" />
    <glyph glyph-name="p" unicode="p" horiz-adv-x="952" 
d="M403 729v-412.001c0 -42.667 5.16699 -70.667 15.5 -84s30.5 -20 60.5 -20c29.333 0 49 6.66699 59 20s15 41.333 15 84v412c0 42.667 -5 70.834 -15 84.501s-29.667 20.5 -59 20.5c-30 0 -50.167 -7 -60.5 -21s-15.5 -42 -15.5 -84zM100 -383.001l0.000976562 1432h289
v-127c26.667 50 59.667 86.667 99 110s87.666 35 144.999 35c84.667 0 144.667 -25.333 180 -76s53 -138.667 53 -264v-405c0 -126.667 -17 -215 -51 -265s-92 -75 -174 -75c-56 0 -103 11.5 -141 34.5s-70.333 59.167 -97 108.5v-508h-303z" />
    <glyph glyph-name="q" unicode="q" horiz-adv-x="952" 
d="M551 317l-0.000976562 412c0 42 -5.16699 70 -15.5 84s-30.5 21 -60.5 21s-50.167 -7 -60.5 -21s-15.5 -42 -15.5 -84v-412c0 -42.667 5 -70.667 15 -84s29.667 -20 59 -20c30.667 0 51.334 6.83301 62.001 20.5s16 41.5 16 83.5zM550.999 125
c-26.667 -49.333 -59 -85.5 -97 -108.5s-85 -34.5 -141 -34.5c-82 0 -140.333 25.167 -175 75.5s-52 138.5 -52 264.5v405c0 125.333 17.667 213.333 53 264s95.333 76 180 76c58 0 107 -11.833 147 -35.5s73 -60.167 99 -109.5v127h289v-1432h-303v508z" />
    <glyph glyph-name="r" unicode="r" horiz-adv-x="795" 
d="M94 0v1049h283v-115c26.667 46.667 57.334 80.5 92.001 101.5s77.667 31.5 129 31.5c63.333 0 108.166 -16.167 134.499 -48.5s39.5 -87.833 39.5 -166.5v-231h-252v110c0 37.333 -4.5 62.666 -13.5 75.999s-24.833 20 -47.5 20c-23.333 0 -39.5 -6.33301 -48.5 -19
s-13.5 -38.334 -13.5 -77.001v-731h-303z" />
    <glyph glyph-name="s" unicode="s" horiz-adv-x="862" 
d="M70 326h274.001c0 -56 5.66699 -92.667 17 -110s33.666 -26 66.999 -26c28 0 48.333 6.16699 61 18.5s19 31.5 19 57.5v66c0 46.667 -51 79.667 -153 99c-38 6.66699 -68.333 12.667 -91 18c-78.667 18 -129.667 40.667 -153 68s-35 72.666 -35 135.999v123
c0 103.333 23 177.666 69 222.999s121.333 68 226 68h139c98.667 0 167.834 -18.167 207.501 -54.5s60.5 -101.833 62.5 -196.5v-75h-268v58c0 26.667 -5.66699 44.834 -17 54.501s-32.333 14.5 -63 14.5c-26.667 0 -47.334 -5.66699 -62.001 -17s-22 -27.333 -22 -48v-58
c0 -39.333 39 -66.666 117 -81.999c43.333 -8.66699 79 -16.667 107 -24c84 -14.667 142.167 -38.834 174.5 -72.501s48.5 -86.5 48.5 -158.5v-125c0 -114 -24.5 -192.667 -73.5 -236s-139.167 -65 -270.5 -65h-80c-114.667 0 -193.5 18.833 -236.5 56.5
s-64.5 106.834 -64.5 207.501v80z" />
    <glyph glyph-name="t" unicode="t" horiz-adv-x="649" 
d="M129 819l-91.999 0.000976562v230h92v278h305v-278h172v-230h-172v-489c0 -40 9.16699 -69.167 27.5 -87.5s47.5 -27.5 87.5 -27.5c10 0 17.667 0.166992 23 0.5s10.333 0.833008 15 1.5l1 -225c-31.333 -4.66699 -60.5 -8.33398 -87.5 -11.001s-51.833 -4 -74.5 -4
c-114.667 0 -192.834 21.167 -234.501 63.5s-62.5 128.5 -62.5 258.5v520z" />
    <glyph glyph-name="u" unicode="u" horiz-adv-x="944" 
d="M852 1049v-1049h-285v133c-30 -54 -64.833 -92.667 -104.5 -116s-89.5 -35 -149.5 -35c-82 0 -139.333 22.333 -172 67s-49 128.667 -49 252v748h305v-732c0 -37.333 5.33301 -62.666 16 -75.999s30 -20 58 -20c28.667 0 48.5 6.83301 59.5 20.5s16.5 38.834 16.5 75.501
v732h305z" />
    <glyph glyph-name="v" unicode="v" horiz-adv-x="858" 
d="M184 0l-157 1049h299l98 -879l119 879h286l-170 -1049h-475z" />
    <glyph glyph-name="w" unicode="w" horiz-adv-x="1460" 
d="M926 1049l108 -824l99 824h292l-159 -1049h-424l-113 838l-111 -838h-425l-160 1049h293l98 -824l104 824h398z" />
    <glyph glyph-name="x" unicode="x" horiz-adv-x="840" 
d="M12 0l160 571l-127 478h305l76 -437l80 437h287l-125 -478l157 -571h-311l-92 471l-94 -471h-316z" />
    <glyph glyph-name="y" unicode="y" horiz-adv-x="858" 
d="M172 0l-137.001 1049h303l94 -897l103 897h292l-145 -975c-28 -187.333 -66.167 -310.666 -114.5 -369.999s-123.5 -89 -225.5 -89c-24 0 -49.667 2.16699 -77 6.5s-57.666 11.166 -90.999 20.499v213c16.667 -4.66699 31.667 -8 45 -10s25 -3 35 -3
c44 0 77.833 13 101.5 39s37.5 65.667 41.5 119h-225z" />
    <glyph glyph-name="z" unicode="z" horiz-adv-x="735" 
d="M51 0v227l307 592h-282v230h592v-244l-306 -578h322v-227h-633z" />
    <glyph glyph-name="braceleft" unicode="{" 
d="M883 1477v-208.998c-6 0 -14.333 0.333008 -25 1s-18 1 -22 1c-67.333 0 -112.833 -12.833 -136.5 -38.5s-35.5 -79.834 -35.5 -162.501v-240c0 -98.667 -15 -168.667 -45 -210s-84 -71 -162 -89c78 -18 132 -47.333 162 -88s45 -110.334 45 -209.001v-241
c0 -82 11.667 -135.667 35 -161s69 -38 137 -38c4 0 11.333 0.333008 22 1s19 1 25 1v-209c-9.33301 0 -22.333 -0.333008 -39 -1s-29 -1 -37 -1c-66.667 0 -122.334 4 -167.001 12s-82.667 20.333 -114 37c-38 22.667 -64.833 53.167 -80.5 91.5s-23.5 104.833 -23.5 199.5
v252c0 91.333 -17 156.166 -51 194.499s-91.333 57.5 -172 57.5c-4 0 -10.667 -0.333008 -20 -1s-16.333 -1 -21 -1v209c4.66699 0 11.667 -0.333008 21 -1s16 -1 20 -1c80 0 137.167 19.333 171.5 58s51.5 104 51.5 196v250c0 95.333 7.83301 162.333 23.5 201
s42.5 69.334 80.5 92.001c31.333 16.667 69.333 29 114 37s100.334 12 167.001 12c8 0 20.333 -0.333008 37 -1s29.667 -1 39 -1z" />
    <glyph glyph-name="bar" unicode="|" 
d="M410 1565h206v-2048h-206v2048z" />
    <glyph glyph-name="braceright" unicode="}" 
d="M143 1477h68.001c73.333 0 132.333 -4 177 -12s82 -20.667 112 -38c38 -21.333 64.833 -51.833 80.5 -91.5s23.5 -105.834 23.5 -198.501v-252c0 -91.333 17 -156.166 51 -194.499s91.333 -57.5 172 -57.5c4 0 10.667 0.333008 20 1s16.333 1 21 1v-209h-37
c-83.333 0 -142 -18.667 -176 -56s-51 -102 -51 -194v-252c0 -95.333 -7.83301 -162.333 -23.5 -201s-42.5 -68.667 -80.5 -90c-31.333 -16.667 -69.333 -29 -114 -37s-100.334 -12 -167.001 -12c-8 0 -20.333 0.333008 -37 1s-29.667 1 -39 1v209
c6 0 14.333 -0.333008 25 -1s18 -1 22 -1c67.333 0 112.833 12.833 136.5 38.5s35.5 79.167 35.5 160.5v239c0 100 15 170.5 45 211.5s84 70.167 162 87.5c-78 18 -132 47.667 -162 89s-45 111.333 -45 210v242c0 81.333 -11.833 134.833 -35.5 160.5
s-69.167 38.5 -136.5 38.5c-4 0 -11.333 -0.333008 -22 -1s-19 -1 -25 -1v209z" />
    <glyph glyph-name="asciitilde" unicode="~" horiz-adv-x="1706" 
d="M1530 803l0.00390625 -221c-69.333 -47.333 -134.833 -82.166 -196.5 -104.499s-122.5 -33.5 -182.5 -33.5c-30.667 0 -61.334 2.66699 -92.001 8s-61.334 13 -92.001 23c-16 5.33301 -39.667 13.666 -71 24.999c-146 50 -257 75 -333 75
c-56.667 0 -115.834 -12.5 -177.501 -37.5s-130.834 -64.833 -207.501 -119.5v221c71.333 48 139.333 83.833 204 107.5s125.667 35.5 183 35.5c78 0 175 -19.333 291 -58l4 -1l55 -19c103.333 -36.667 183.333 -55 240 -55s115 12.333 175 37s126.667 63.667 200 117z" />
    <glyph glyph-name="euro" 
d="M938 399c0 -104 -4.83203 -177.335 -14.499 -220.002s-26.167 -79 -49.5 -109c-24 -32.667 -55.833 -55.5 -95.5 -68.5s-111.5 -19.5 -215.5 -19.5c-120 0 -201.833 6.5 -245.5 19.5s-79.834 35.833 -108.501 68.5c-26.667 30 -45.667 66.833 -57 110.5
s-17 116.5 -17 218.5v176h-135l35 105h100v139h-135l35 105h100v161c0 102 5.66699 174.667 17 218s30.333 80 57 110c28.667 32.667 67.167 55.834 115.5 69.501s127.833 20.5 238.5 20.5c95.333 0 164.333 -6.66699 207 -20s76.667 -36 102 -68c24 -30.667 41 -69 51 -115
s15 -117.667 15 -215v-18h-301v80c0 42 -5.5 69.833 -16.5 83.5s-32.833 20.5 -65.5 20.5s-54.167 -6.5 -64.5 -19.5s-15.5 -41.167 -15.5 -84.5v-223h289l-35 -105h-254v-139h209l-35 -105h-174v-239c0 -43.333 5.16699 -71.666 15.5 -84.999s31.833 -20 64.5 -20
s54.5 7 65.5 21s16.5 42 16.5 84v117h301v-54z" />
    <glyph glyph-name="euro" unicode="&#x20ac;" 
d="M938 399c0 -104 -4.83203 -177.335 -14.499 -220.002s-26.167 -79 -49.5 -109c-24 -32.667 -55.833 -55.5 -95.5 -68.5s-111.5 -19.5 -215.5 -19.5c-120 0 -201.833 6.5 -245.5 19.5s-79.834 35.833 -108.501 68.5c-26.667 30 -45.667 66.833 -57 110.5
s-17 116.5 -17 218.5v176h-135l35 105h100v139h-135l35 105h100v161c0 102 5.66699 174.667 17 218s30.333 80 57 110c28.667 32.667 67.167 55.834 115.5 69.501s127.833 20.5 238.5 20.5c95.333 0 164.333 -6.66699 207 -20s76.667 -36 102 -68c24 -30.667 41 -69 51 -115
s15 -117.667 15 -215v-18h-301v80c0 42 -5.5 69.833 -16.5 83.5s-32.833 20.5 -65.5 20.5s-54.167 -6.5 -64.5 -19.5s-15.5 -41.167 -15.5 -84.5v-223h289l-35 -105h-254v-139h209l-35 -105h-174v-239c0 -43.333 5.16699 -71.666 15.5 -84.999s31.833 -20 64.5 -20
s54.5 7 65.5 21s16.5 42 16.5 84v117h301v-54z" />
    <glyph glyph-name="nonbreakingspace" unicode="&#xa0;" 
 />
    <glyph glyph-name="exclamdown" unicode="&#xa1;" horiz-adv-x="588" 
d="M449 1020v-1020h-310v1020h310zM449 1485v-328h-310v328h310z" />
    <glyph glyph-name="cent" unicode="&#xa2;" 
d="M422 387l174 428c-9.33301 10.667 -19.5 18.167 -30.5 22.5s-27.5 6.5 -49.5 6.5c-37.333 0 -62.333 -7.5 -75 -22.5s-19 -43.833 -19 -86.5v-348zM670 690l-201 -475.002c4 -3.33301 9.66699 -5.83301 17 -7.5s21.333 -2.5 42 -2.5c35.333 0 58.833 7.16699 70.5 21.5
s17.5 42.5 17.5 84.5v103h281v-107c0 -123.333 -24.167 -208.333 -72.5 -255s-134.833 -70 -259.5 -70c-32.667 0 -65.334 0.666992 -98.001 2s-64.667 3.33301 -96 6l-111 -258h-133l131 305c-44 26.667 -75.5 67.167 -94.5 121.5s-28.5 132.5 -28.5 234.5v260
c0 160.667 27.667 269.834 83 327.501s161 86.5 317 86.5c38.667 0 70.834 -0.833008 96.501 -2.5s47.167 -4.16699 64.5 -7.5l95 215h131l-117 -273c26.667 -21.333 46 -52.166 58 -92.499s18 -95.5 18 -165.5v-51h-211z" />
    <glyph glyph-name="sterling" unicode="&#xa3;" 
d="M76 0l0.000976562 266c58 0 97.333 10.333 118 31s31 60.334 31 119.001v131h-149v246h141c-6 92 -10.5 168.667 -13.5 230s-4.5 109.333 -4.5 144c0 116 31 201 93 255s159.333 81 292 81c134.667 0 233.167 -24.667 295.5 -74s93.5 -127 93.5 -233v-129h-303v100
c0 37.333 -5 62.5 -15 75.5s-27.667 19.5 -53 19.5c-28.667 0 -48.834 -7.33301 -60.501 -22s-17.5 -40.334 -17.5 -77.001c0 -9.33301 2.33301 -55 7 -137s8.66699 -159.667 12 -233h256v-246l-244 -1c0.666992 -8 1.16699 -17 1.5 -27s0.5 -24.667 0.5 -44
c0 -43.333 -3.33301 -82 -10 -116s-17 -65 -31 -93h457v-266h-897z" />
    <glyph glyph-name="currency" unicode="&#xa4;" 
d="M938 399c0 -104 -4.83203 -177.335 -14.499 -220.002s-26.167 -79 -49.5 -109c-24 -32.667 -55.833 -55.5 -95.5 -68.5s-111.5 -19.5 -215.5 -19.5c-120 0 -201.833 6.5 -245.5 19.5s-79.834 35.833 -108.501 68.5c-26.667 30 -45.667 66.833 -57 110.5
s-17 116.5 -17 218.5v176h-135l35 105h100v139h-135l35 105h100v161c0 102 5.66699 174.667 17 218s30.333 80 57 110c28.667 32.667 67.167 55.834 115.5 69.501s127.833 20.5 238.5 20.5c95.333 0 164.333 -6.66699 207 -20s76.667 -36 102 -68c24 -30.667 41 -69 51 -115
s15 -117.667 15 -215v-18h-301v80c0 42 -5.5 69.833 -16.5 83.5s-32.833 20.5 -65.5 20.5s-54.167 -6.5 -64.5 -19.5s-15.5 -41.167 -15.5 -84.5v-223h289l-35 -105h-254v-139h209l-35 -105h-174v-239c0 -43.333 5.16699 -71.666 15.5 -84.999s31.833 -20 64.5 -20
s54.5 7 65.5 21s16.5 42 16.5 84v117h301v-54z" />
    <glyph glyph-name="yen" unicode="&#xa5;" 
d="M354 0v481l-24 74h-310v104h277l-68 213h-209v105h177l-164 508h332l161 -754l154 754h309l-162 -508h179v-105h-213l-68 -213h281v-104h-316l-20 -74v-481h-316z" />
    <glyph glyph-name="brokenbar" unicode="&#xa6;" 
d="M410 408h206v-758h-206v758zM410 1432h206v-758h-206v758z" />
    <glyph glyph-name="section" unicode="&#xa7;" horiz-adv-x="1114" 
d="M262 973c-30.667 27.333 -53.667 59.334 -69 96.001s-23 77.667 -23 123c0 104.667 33.5 182.667 100.5 234s168.5 77 304.5 77c136.667 0 234.334 -20.667 293.001 -62s88 -109.333 88 -204v-49h-288v22c0 21.333 -7.16699 37 -21.5 47s-36.5 15 -66.5 15
c-34.667 0 -59.167 -5 -73.5 -15s-21.5 -27 -21.5 -51c0 -43.333 51.667 -83.333 155 -120l68 -25c117.333 -44.667 196.333 -88.334 237 -131.001s61 -98 61 -166c0 -57.333 -13.167 -106.666 -39.5 -147.999s-65.166 -74 -116.499 -98
c35.333 -35.333 61.5 -72.833 78.5 -112.5s25.5 -83.5 25.5 -131.5c0 -98.667 -34 -172 -102 -220s-172.333 -72 -313 -72c-146.667 0 -251.334 20.5 -314.001 61.5s-94 109.167 -94 204.5v67h303v-28c0 -28 7.16699 -47.667 21.5 -59s38.5 -17 72.5 -17
c37.333 0 63.166 4.5 77.499 13.5s21.5 24.833 21.5 47.5c0 50 -51.333 93.333 -154 130l-33 12c-136.667 51.333 -227.167 99.166 -271.5 143.499s-66.5 102.166 -66.5 173.499c0 55.333 13.833 103.833 41.5 145.5s67.167 73.834 118.5 96.501zM719 614.001
c11.333 9.33301 19.667 19.167 25 29.5s8 21.833 8 34.5c0 22.667 -7.5 41.667 -22.5 57s-40.5 29.666 -76.5 42.999l-261 102c-11.333 -8.66699 -19.5 -18 -24.5 -28s-7.5 -21.667 -7.5 -35c0 -22.667 7.33301 -41.667 22 -57s39.667 -29.666 75 -42.999z" />
    <glyph glyph-name="dieresis" unicode="&#xa8;" 
d="M573 1225v245h226v-245h-226zM225 1225v245h226v-245h-226z" />
    <glyph glyph-name="copyright" unicode="&#xa9;" horiz-adv-x="1706" 
d="M1212 897l-188.001 -0.00195312c-5.33301 46.667 -23 82.834 -53 108.501s-69.667 38.5 -119 38.5c-60.667 0 -108.334 -27.167 -143.001 -81.5s-52 -130.166 -52 -227.499c0 -98 17.333 -172.667 52 -224s85 -77 151 -77c48.667 0 87.667 14 117 42s47 67.667 53 119
l193 1c-5.33301 -92.667 -41.666 -167 -108.999 -223s-154 -84 -260 -84c-124 0 -221.833 39.333 -293.5 118s-107.5 186 -107.5 322c0 137.333 36.5 246.833 109.5 328.5s170.833 122.5 293.5 122.5c101.333 0 184.833 -26 250.5 -78s100.834 -120.333 105.501 -205z
M853.999 1356c-85.333 0 -165.168 -15.3311 -239.501 -45.998s-140.5 -75.334 -198.5 -134.001c-59.333 -60 -104.666 -127.833 -135.999 -203.5s-47 -154.834 -47 -237.501c0 -83.333 15.667 -162.333 47 -237s76.666 -141.667 135.999 -201
c58.667 -58.667 125.667 -103.667 201 -135s154.333 -47 237 -47s161.834 15.667 237.501 47s143.834 77 204.501 137c58.667 57.333 103.167 123 133.5 197s45.5 153.667 45.5 239c0 84 -15.5 163.5 -46.5 238.5s-75.833 141.833 -134.5 200.5
c-59.333 59.333 -126.333 104.5 -201 135.5s-154.334 46.5 -239.001 46.5zM851.997 1479c101.333 0 197.167 -18.668 287.5 -56.001s171.166 -91.666 242.499 -162.999c70 -70 123.333 -150.167 160 -240.5s55 -185.833 55 -286.5c0 -101.333 -18.167 -196 -54.5 -284
s-89.833 -166.667 -160.5 -236c-74 -72 -156.667 -127.167 -248 -165.5s-185.333 -57.5 -282 -57.5c-98 0 -191.5 18.833 -280.5 56.5s-169.5 92.5 -241.5 164.5c-71.333 70.667 -125.666 150.834 -162.999 240.501s-56 183.5 -56 281.5c0 99.333 18.667 194.166 56 284.499
s91.666 171.833 162.999 244.5c70 70.667 149.333 124.5 238 161.5s183.334 55.5 284.001 55.5z" />
    <glyph glyph-name="ordfeminine" unicode="&#xaa;" horiz-adv-x="686" 
d="M387 946v80c0 15.333 -4.83301 27.333 -14.5 36s-23.167 13 -40.5 13s-31 -4.33301 -41 -13s-15 -20.667 -15 -36v-80c0 -15.333 5 -27.333 15 -36s23.667 -13 41 -13s30.833 4.33301 40.5 13s14.5 20.667 14.5 36zM399 752v58.999
c-16.667 -25.333 -37.834 -43.666 -63.501 -54.999s-60.5 -17 -104.5 -17c-66 0 -112.167 14.667 -138.5 44s-39.5 81 -39.5 155v88c0 62 15 107.5 45 136.5s76.667 43.5 140 43.5c26.667 0 52.834 -3.66699 78.501 -11s49.167 -18 70.5 -32v109
c0 30.667 -3.66699 50.667 -11 60s-22 14 -44 14c-21.333 0 -35.5 -4.83301 -42.5 -14.5s-10.5 -29.5 -10.5 -59.5h-201v53c0 67.333 17.5 113.166 52.5 137.499s106.833 36.5 215.5 36.5s180.5 -12.167 215.5 -36.5s52.5 -70.166 52.5 -137.499v-573h-215z" />
    <glyph glyph-name="guillemotleft" unicode="&#xab;" horiz-adv-x="1014" 
d="M653 201l-159 323l159 322h297l-149 -322l160 -323h-308zM227 201l-157 323l157 322h299l-151 -322l162 -323h-310z" />
    <glyph glyph-name="logicalnot" unicode="&#xac;" horiz-adv-x="1706" 
d="M254 864h1198v-502h-199v306h-999v196z" />
    <glyph glyph-name="sfthyphen" unicode="&#xad;" horiz-adv-x="692" 
d="M76 408v256h540v-256h-540z" />
    <glyph glyph-name="registered" unicode="&#xae;" horiz-adv-x="1706" 
d="M745 1034l-0.000976562 -239h99c58.667 0 101.667 9.33301 129 28s41 48 41 88c0 42 -14.667 73 -44 93s-74.666 30 -135.999 30h-89zM544.999 1161l323 0.00195312c117.333 0 205.5 -19.833 264.5 -59.5s88.5 -98.834 88.5 -177.501
c0 -54.667 -16 -101.334 -48 -140.001s-76.333 -65 -133 -79l185 -369h-224l-157 338h-99v-338h-200v825zM853.999 1356c-84.667 0 -163.331 -14.834 -235.998 -44.501s-138 -73.5 -196 -131.5c-60.667 -60.667 -107.334 -129.5 -140.001 -206.5s-49 -156.5 -49 -238.5
c0 -82.667 15.333 -161.167 46 -235.5s75 -140.5 133 -198.5c59.333 -60.667 127 -107.167 203 -139.5s155 -48.5 237 -48.5c80 0 157.833 15.667 233.5 47s144.5 76.333 206.5 135c58 56 103 121.333 135 196s48 152 48 232c0 88.667 -14.833 170.334 -44.5 245.001
s-73.834 141.667 -132.501 201c-60 62 -127.5 108.667 -202.5 140s-155.5 47 -241.5 47zM852.002 1479c102.667 0 199.498 -19.1689 290.498 -57.502s172.167 -93.833 243.5 -166.5c68.667 -69.333 121 -148.666 157 -237.999s54 -184 54 -284
c0 -101.333 -18.667 -197.166 -56 -287.499s-91.666 -169.833 -162.999 -238.5c-71.333 -70 -152.5 -123.667 -243.5 -161s-185.167 -56 -282.5 -56c-99.333 0 -194.333 19.333 -285 58s-171.667 94.334 -243 167.001c-69.333 70 -122.166 149.5 -158.499 238.5
s-54.5 182.167 -54.5 279.5c0 68 9 134.167 27 198.5s45 127.166 81 188.499c67.333 113.333 156.333 201.5 267 264.5s232.667 94.5 366 94.5z" />
    <glyph glyph-name="macron" unicode="&#xaf;" 
d="M225 1270v155h574v-155h-574z" />
    <glyph glyph-name="degree" unicode="&#xb0;" horiz-adv-x="674" 
d="M338 1335c-48.667 0 -90.167 -17 -124.5 -51s-51.5 -75 -51.5 -123c0 -49.333 17 -91 51 -125s75.667 -51 125 -51c48 0 89 17.333 123 52s51 76 51 124s-17 89 -51 123s-75 51 -123 51zM338 1464c84 0 155.5 -29.835 214.5 -89.502s88.5 -131.5 88.5 -215.5
c0 -83.333 -29.667 -154.666 -89 -213.999s-131.333 -89 -216 -89c-84 0 -155.167 29.333 -213.5 88s-87.5 130.334 -87.5 215.001s29.5 156.667 88.5 216s130.5 89 214.5 89z" />
    <glyph glyph-name="plusminus" unicode="&#xb1;" horiz-adv-x="1706" 
d="M254 197h1198v-199h-1198v199zM752 1223h202v-326h498v-199h-498v-325h-202v325h-498v199h498v326z" />
    <glyph glyph-name="twosuperior" unicode="&#xb2;" horiz-adv-x="676" 
d="M63 594l-0.00195312 143.002c0 36 1.66699 65.167 5 87.5s8.66602 43.166 15.999 62.499c8.66699 22 21.334 42.167 38.001 60.5s40.334 37.166 71.001 56.499c18 11.333 46.333 25 85 41s65.334 28.667 80.001 38c7.33301 4.66699 12.666 11.167 15.999 19.5
s5 19.833 5 34.5v145c0 26 -3 43.167 -9 51.5s-17.333 12.5 -34 12.5s-28 -4.5 -34 -13.5s-9 -25.833 -9 -50.5v-121h-217v84c0 98.667 18 165 54 199s106.667 51 212 51c104.667 0 174.834 -16.833 210.501 -50.5s53.5 -100.167 53.5 -199.5v-112
c0 -50.667 -9.5 -89.5 -28.5 -116.5s-54.5 -51.833 -106.5 -74.5l-50 -22c-90.667 -38 -136 -81 -136 -129v-37h315v-160h-537z" />
    <glyph glyph-name="threesuperior" unicode="&#xb3;" horiz-adv-x="676" 
d="M70 1280c0 84 17.834 140.833 53.501 170.5s106.5 44.5 212.5 44.5s176.5 -14.5 211.5 -43.5s52.5 -86.167 52.5 -171.5v-70c0 -46.667 -8.83301 -80.5 -26.5 -101.5s-48.834 -35.5 -93.501 -43.5c47.333 -6 80.833 -21 100.5 -45s29.5 -62.333 29.5 -115v-106
c0 -84.667 -18.167 -141.667 -54.5 -171s-109.5 -44 -219.5 -44c-111.333 0 -185.333 14.667 -222 44s-55 86.333 -55 171v94h213v-98c0 -24 4.16699 -40.333 12.5 -49s24.166 -13 47.499 -13s39 4.16699 47 12.5s12 24.833 12 49.5v120c0 26 -5.66699 43.167 -17 51.5
s-38.333 12.5 -81 12.5h-82v147h76c38.667 0 64.334 5 77.001 15s19 31.667 19 65v76c0 25.333 -3.83301 42.333 -11.5 51s-22.167 13 -43.5 13s-36 -4.5 -44 -13.5s-12 -25.833 -12 -50.5v-57h-202v55z" />
    <glyph glyph-name="acute" unicode="&#xb4;" 
d="M805 1536l-313 -371h-142l197 371h258z" />
    <glyph glyph-name="mu" unicode="&#xb5;" horiz-adv-x="1249" 
d="M205 1092h289.001l-76 -435c-10 -53.333 -17.667 -103.833 -23 -151.5s-8 -86.5 -8 -116.5c0 -62 14 -108.167 42 -138.5s70.667 -45.5 128 -45.5c66.667 0 118.5 27.333 155.5 82s67.833 151.667 92.5 291l90 514h289l-193 -1092h-268l18 117
c-28 -52 -59.167 -90 -93.5 -114s-74.833 -36 -121.5 -36c-44.667 0 -84.334 9.83301 -119.001 29.5s-66 50.167 -94 91.5l-90 -526h-286z" />
    <glyph glyph-name="paragraph" unicode="&#xb6;" 
d="M983 1479v-111h-113v-1368h-151v1368h-158v-1368h-153v784c-111.333 4 -200.333 37.667 -267 101s-100 145 -100 245c0 105.333 35.667 189.833 107 253.5s166 95.5 284 95.5h551z" />
    <glyph glyph-name="periodcentered" unicode="&#xb7;" horiz-adv-x="512" 
d="M80 741c0 48.667 17.165 90.334 51.498 125.001s75.833 52 124.5 52s89.834 -17.333 123.501 -52s50.5 -76.334 50.5 -125.001s-16.667 -89.834 -50 -123.501s-74.666 -50.5 -123.999 -50.5c-48.667 0 -90.167 16.833 -124.5 50.5s-51.5 74.834 -51.5 123.501z" />
    <glyph glyph-name="cedilla" unicode="&#xb8;" 
d="M283 -438l0.000976562 129c53.333 -14 101.666 -24.667 144.999 -32s80.333 -11 111 -11c34.667 0 60 5.83301 76 17.5s24 30.167 24 55.5s-9.33301 43.333 -28 54s-49.667 16 -93 16c-15.333 0 -27 -0.166992 -35 -0.5s-15.333 -0.833008 -22 -1.5v211h102v-90h15
c78 0 136.667 -16 176 -48s59 -79.667 59 -143c0 -66.667 -22 -116.667 -66 -150s-110 -50 -198 -50c-34 0 -73.833 3.66699 -119.5 11s-94.5 18 -146.5 32z" />
    <glyph glyph-name="onesuperior" unicode="&#xb9;" horiz-adv-x="676" 
d="M299 594l-0.000976562 745c-19.333 -30 -41.166 -60.667 -65.499 -92s-51.5 -64 -81.5 -98l-123 106l114 122c34 37.333 65 73.333 93 108h282v-891h-219z" />
    <glyph glyph-name="ordmasculine" unicode="&#xba;" horiz-adv-x="700" 
d="M287 1262l0.00195312 -287c0 -30 4.16699 -49.833 12.5 -59.5s25.166 -14.5 50.499 -14.5s42.333 5 51 15s13 29.667 13 59v287c0 29.333 -4.16699 48.833 -12.5 58.5s-25.5 14.5 -51.5 14.5c-24.667 0 -41.334 -4.83301 -50.001 -14.5s-13 -29.167 -13 -58.5z
M53.002 1208c0 114 20.5 191.001 61.5 231.001s119.5 60 235.5 60s194.833 -20.333 236.5 -61s62.5 -117.334 62.5 -230.001v-182c0 -111.333 -20.833 -187 -62.5 -227s-120.5 -60 -236.5 -60s-194.5 19.833 -235.5 59.5s-61.5 115.5 -61.5 227.5v182z" />
    <glyph glyph-name="guillemotright" unicode="&#xbb;" horiz-adv-x="1014" 
d="M786 846l160 -322l-160 -323h-299l152 323l-160 322h307zM360 846l158 -322l-158 -323h-299l152 323l-162 322h309z" />
    <glyph glyph-name="onequarter" unicode="&#xbc;" horiz-adv-x="1632" 
d="M1167 313h176v414zM1343 0v172h-327v199l209 460h319v-518h55v-141h-55v-172h-201zM303 -18l836 1521h188l-833 -1521h-191zM287 653l0.000976562 695c-23.333 -34 -47 -65.5 -71 -94.5s-48.333 -56.5 -73 -82.5l-116 99c42.667 42.667 79.667 81.167 111 115.5
s59.666 67.5 84.999 99.5h273v-832h-209z" />
    <glyph glyph-name="onehalf" unicode="&#xbd;" horiz-adv-x="1632" 
d="M1049 0v133c0 38.667 1.33301 67.834 4 87.501s7.33398 37.5 14.001 53.5c8.66699 21.333 21 40.333 37 57s37.667 33.334 65 50.001c18 11.333 45.5 24.5 82.5 39.5s63.167 27.167 78.5 36.5c6.66699 3.33301 11.667 9.16602 15 17.499s5 19.5 5 33.5v135
c0 23.333 -2.83301 38.666 -8.5 45.999s-16.5 11 -32.5 11s-26.833 -3.66699 -32.5 -11s-8.5 -22.666 -8.5 -45.999v-113h-209v78c0 92 17.333 154 52 186s102 48 202 48c100.667 0 168.167 -15.833 202.5 -47.5s51.5 -93.834 51.5 -186.501v-104
c0 -48 -9.16699 -84.5 -27.5 -109.5s-52.833 -48.5 -103.5 -70.5c-10.667 -4.66699 -25.334 -10.667 -44.001 -18c-90 -35.333 -135 -76 -135 -122v-34h304v-150h-512zM303 -18l836 1521h188l-833 -1521h-191zM287 653l0.000976562 695c-23.333 -34 -47 -65.5 -71 -94.5
s-48.333 -56.5 -73 -82.5l-116 99c42.667 42.667 79.667 81.167 111 115.5s59.666 67.5 84.999 99.5h273v-832h-209z" />
    <glyph glyph-name="threequarters" unicode="&#xbe;" horiz-adv-x="1632" 
d="M1167 313h176v414zM1343 0v172h-327v199l209 460h319v-518h55v-141h-55v-172h-201zM303 -18l836 1521h188l-833 -1521h-191zM68 1292c0 80 16.832 133.837 50.499 161.504s100.5 41.5 200.5 41.5c102 0 169.833 -13.833 203.5 -41.5s50.5 -81.5 50.5 -161.5v-63
c0 -44 -8.5 -76 -25.5 -96s-47.167 -33.667 -90.5 -41c46 -5.33301 78.667 -19 98 -41s29 -57.667 29 -107v-100c0 -78.667 -17.667 -131.834 -53 -159.501s-106 -41.5 -212 -41.5c-104.667 0 -174.5 13.667 -209.5 41s-52.5 80.666 -52.5 159.999v88h203v-90
c0 -22.667 4 -38.334 12 -47.001s23 -13 45 -13s36.833 4.16699 44.5 12.5s11.5 24.166 11.5 47.499v110c0 25.333 -5.66699 42 -17 50s-37 12 -77 12h-78v135h73c36.667 0 61 4.66699 73 14s18 30 18 62v71c0 23.333 -3.66699 38.833 -11 46.5s-21.666 11.5 -42.999 11.5
c-20 0 -33.5 -3.83301 -40.5 -11.5s-10.5 -23.167 -10.5 -46.5v-53h-192v49z" />
    <glyph glyph-name="questiondown" unicode="&#xbf;" horiz-adv-x="985" 
d="M696 1485v-328h-319v328h319zM698 1020v-145.998c0 -54.667 -6.66699 -97.834 -20 -129.501s-36 -59.167 -68 -82.5c-12.667 -10 -30.667 -23.333 -54 -40c-51.333 -36.667 -84.333 -62.334 -99 -77.001c-10 -10.667 -17 -23.167 -21 -37.5s-6 -40.833 -6 -79.5v-102
c0 -42 5.5 -70 16.5 -84s33.5 -21 67.5 -21s56.833 7.16699 68.5 21.5s17.5 42.166 17.5 83.499v116h315v-43c0 -164 -28.167 -274.5 -84.5 -331.5s-166.5 -85.5 -330.5 -85.5c-156.667 0 -264.167 23 -322.5 69s-87.5 130.667 -87.5 254v156c0 78.667 9.83301 137 29.5 175
s56.167 75.333 109.5 112c9.33301 5.33301 22.333 13.333 39 24c72.667 44.667 109 95.334 109 152.001v96h321z" />
    <glyph glyph-name="Agrave" unicode="&#xc0;" horiz-adv-x="1063" 
d="M449 612h157l-76 701zM31 0l221 1485h553l227 -1485h-354l-41 365h-219l-41 -365h-346zM239 1974h258l197 -371h-142z" />
    <glyph glyph-name="Aacute" unicode="&#xc1;" horiz-adv-x="1063" 
d="M449 612h157l-76 701zM31 0l221 1485h553l227 -1485h-354l-41 365h-219l-41 -365h-346zM825 1974l-313 -371h-142l197 371h258z" />
    <glyph glyph-name="Acircumflex" unicode="&#xc2;" horiz-adv-x="1063" 
d="M449 612h157l-76 701zM31 0l221 1485h553l227 -1485h-354l-41 365h-219l-41 -365h-346zM217 1603l196 371h238l196 -371h-141l-174 219l-176 -219h-139z" />
    <glyph glyph-name="Atilde" unicode="&#xc3;" horiz-adv-x="1063" 
d="M449 612h157l-76 701zM31 0l221 1485h553l227 -1485h-354l-41 365h-219l-41 -365h-346zM849 1925c-17.333 -82.667 -42.999 -143.667 -76.999 -183s-77.667 -59 -131 -59c-14 0 -27 0.833008 -39 2.5s-24 4.5 -36 8.5l-87 24
c-19.333 5.33301 -33.166 8.66602 -41.499 9.99902s-16.5 2 -24.5 2c-22.667 0 -41 -6.66699 -55 -20s-25 -34.666 -33 -63.999h-110c16 83.333 40.667 144.5 74 183.5s76.666 58.5 129.999 58.5c13.333 0 27.166 -1.16699 41.499 -3.5s29.166 -5.83301 44.499 -10.5l92 -27
c6.66699 -2 13.834 -3.5 21.501 -4.5s19.167 -1.5 34.5 -1.5c22 0 40 7 54 21s24.667 35 32 63h110z" />
    <glyph glyph-name="Adieresis" unicode="&#xc4;" horiz-adv-x="1063" 
d="M449 612h157l-76 701zM31 0l221 1485h553l227 -1485h-354l-41 365h-219l-41 -365h-346zM593 1663v245h226v-245h-226zM245 1663v245h226v-245h-226z" />
    <glyph glyph-name="Aring" unicode="&#xc5;" horiz-adv-x="1063" 
d="M416 1720c0 -32.667 11.001 -60.167 33.001 -82.5s49 -33.5 81 -33.5c33.333 0 61.166 11.167 83.499 33.5s33.5 49.833 33.5 82.5c0 32 -11.5 59.167 -34.5 81.5s-50.5 33.5 -82.5 33.5s-59 -11 -81 -33s-33 -49.333 -33 -82zM449.001 612h157l-76 701zM31.001 0
l221 1485h190c-54 22.667 -94.667 53.667 -122 93s-41 86.666 -41 141.999c0 70 24.5 129.5 73.5 178.5s108.167 73.5 177.5 73.5c70.667 0 130.667 -24.5 180 -73.5s74 -108.5 74 -178.5c0 -54.667 -14.333 -102.5 -43 -143.5s-69.667 -71.5 -123 -91.5h187l227 -1485h-354
l-41 365h-219l-41 -365h-346z" />
    <glyph glyph-name="AE" unicode="&#xc6;" horiz-adv-x="1450" 
d="M1366 1485v-266h-309v-328h289v-256h-289v-369h338v-266h-670v387h-317l-111 -387h-350l469 1485h950zM479 643h246v594h-78z" />
    <glyph glyph-name="Ccedilla" unicode="&#xc7;" horiz-adv-x="999" 
d="M616 983l-0.000976562 150c0 42 -5.66699 69.833 -17 83.5s-34.333 20.5 -69 20.5c-34 0 -56.5 -6.66699 -67.5 -20s-16.5 -41.333 -16.5 -84v-783c0 -42.667 5.5 -70.667 16.5 -84s33.5 -20 67.5 -20c34.667 0 57.667 6.83301 69 20.5s17 41.5 17 83.5v203h316v-154
c0 -100 -5.16699 -172.167 -15.5 -216.5s-27.833 -81.833 -52.5 -112.5c-26 -32.667 -59.5 -55.5 -100.5 -68.5s-115.833 -19.5 -224.5 -19.5c-126.667 0 -212.667 6.5 -258 19.5s-83 35.833 -113 68.5c-28 30.667 -48 68.5 -60 113.5s-18 116.833 -18 215.5v686
c0 98.667 5.83301 170.334 17.5 215.001s31.834 82.334 60.501 113.001c30.667 33.333 71.167 56.666 121.5 69.999s133.5 20 249.5 20c99.333 0 171.5 -6.5 216.5 -19.5s80.5 -35.833 106.5 -68.5c25.333 -30.667 43.333 -68.834 54 -114.501s16 -117.5 16 -215.5v-102
h-316zM274.999 -438l0.000976562 129c53.333 -14 101.666 -24.667 144.999 -32s80.333 -11 111 -11c34.667 0 60 5.83301 76 17.5s24 30.167 24 55.5s-9.33301 43.333 -28 54s-49.667 16 -93 16c-15.333 0 -27 -0.166992 -35 -0.5s-15.333 -0.833008 -22 -1.5v211h102v-90
h15c78 0 136.667 -16 176 -48s59 -79.667 59 -143c0 -66.667 -22 -116.667 -66 -150s-110 -50 -198 -50c-34 0 -73.833 3.66699 -119.5 11s-94.5 18 -146.5 32z" />
    <glyph glyph-name="Egrave" unicode="&#xc8;" horiz-adv-x="848" 
d="M109 0v1485h653v-266h-307v-328h288v-256h-288v-369h336v-266h-682zM143 1974h258l197 -371h-142z" />
    <glyph glyph-name="Eacute" unicode="&#xc9;" horiz-adv-x="848" 
d="M109 0v1485h653v-266h-307v-328h288v-256h-288v-369h336v-266h-682zM729 1974l-313 -371h-142l197 371h258z" />
    <glyph glyph-name="Ecircumflex" unicode="&#xca;" horiz-adv-x="848" 
d="M109 0v1485h653v-266h-307v-328h288v-256h-288v-369h336v-266h-682zM121 1603l196 371h238l196 -371h-141l-174 219l-176 -219h-139z" />
    <glyph glyph-name="Edieresis" unicode="&#xcb;" horiz-adv-x="848" 
d="M109 0v1485h653v-266h-307v-328h288v-256h-288v-369h336v-266h-682zM497 1663v245h226v-245h-226zM149 1663v245h226v-245h-226z" />
    <glyph glyph-name="Igrave" unicode="&#xcc;" horiz-adv-x="580" 
d="M461 0h-346v1485h346v-1485zM-2 1974h258l197 -371h-142z" />
    <glyph glyph-name="Iacute" unicode="&#xcd;" horiz-adv-x="580" 
d="M461 0h-346v1485h346v-1485zM584 1974l-313 -371h-142l197 371h258z" />
    <glyph glyph-name="Icircumflex" unicode="&#xce;" horiz-adv-x="580" 
d="M461 0h-346v1485h346v-1485zM-24 1603l196 371h238l196 -371h-141l-174 219l-176 -219h-139z" />
    <glyph glyph-name="Idieresis" unicode="&#xcf;" horiz-adv-x="580" 
d="M461 0h-346v1485h346v-1485zM352 1663v245h226v-245h-226zM4 1663v245h226v-245h-226z" />
    <glyph glyph-name="Eth" unicode="&#xd0;" horiz-adv-x="1096" 
d="M649 365v753c0 40.667 -6 67.667 -18 81s-36.667 20 -74 20h-102v-359h116v-162h-116v-434h102c37.333 0 62 6.83301 74 20.5s18 40.5 18 80.5zM119 0v698h-119v162h119v625h438c176 0 294.833 -31.167 356.5 -93.5s92.5 -184.833 92.5 -367.5v-563
c0 -182.667 -30.833 -305.167 -92.5 -367.5s-180.5 -93.5 -356.5 -93.5h-438z" />
    <glyph glyph-name="Ntilde" unicode="&#xd1;" horiz-adv-x="1266" 
d="M109 0v1485h487l268 -1174l-20 1174h313v-1485h-485l-273 1206l23 -1206h-313zM950 1925c-17.333 -82.667 -42.999 -143.667 -76.999 -183s-77.667 -59 -131 -59c-14 0 -27 0.833008 -39 2.5s-24 4.5 -36 8.5l-87 24c-19.333 5.33301 -33.166 8.66602 -41.499 9.99902
s-16.5 2 -24.5 2c-22.667 0 -41 -6.66699 -55 -20s-25 -34.666 -33 -63.999h-110c16 83.333 40.667 144.5 74 183.5s76.666 58.5 129.999 58.5c13.333 0 27.166 -1.16699 41.499 -3.5s29.166 -5.83301 44.499 -10.5l92 -27c6.66699 -2 13.834 -3.5 21.501 -4.5
s19.167 -1.5 34.5 -1.5c22 0 40 7 54 21s24.667 35 32 63h110z" />
    <glyph glyph-name="Ograve" unicode="&#xd2;" horiz-adv-x="1075" 
d="M631 350v783c0 41.333 -6.16699 69 -18.5 83s-36.833 21 -73.5 21c-37.333 0 -62.166 -7 -74.499 -21s-18.5 -41.667 -18.5 -83v-783c0 -42 6.16699 -69.833 18.5 -83.5s37.166 -20.5 74.499 -20.5c36.667 0 61.167 6.83301 73.5 20.5s18.5 41.5 18.5 83.5zM985 399
c0 -102 -5.66992 -174.833 -17.0029 -218.5s-31 -80.5 -59 -110.5c-30 -32.667 -67.667 -55.5 -113 -68.5s-131 -19.5 -257 -19.5c-126.667 0 -212.667 6.5 -258 19.5s-83 35.833 -113 68.5c-28 30.667 -48 68.5 -60 113.5s-18 116.833 -18 215.5v686
c0 98.667 5.83301 170.334 17.5 215.001s31.834 82.334 60.501 113.001c30.667 33.333 71.167 56.666 121.5 69.999s133.5 20 249.5 20c115.333 0 197.833 -6.66699 247.5 -20s89.834 -36.666 120.501 -69.999c28.667 -30.667 48.834 -68.334 60.501 -113.001
s17.5 -116.334 17.5 -215.001v-686zM245.997 1974h258l197 -371h-142z" />
    <glyph glyph-name="Oacute" unicode="&#xd3;" horiz-adv-x="1075" 
d="M631 350v783c0 41.333 -6.16699 69 -18.5 83s-36.833 21 -73.5 21c-37.333 0 -62.166 -7 -74.499 -21s-18.5 -41.667 -18.5 -83v-783c0 -42 6.16699 -69.833 18.5 -83.5s37.166 -20.5 74.499 -20.5c36.667 0 61.167 6.83301 73.5 20.5s18.5 41.5 18.5 83.5zM985 399
c0 -102 -5.66992 -174.833 -17.0029 -218.5s-31 -80.5 -59 -110.5c-30 -32.667 -67.667 -55.5 -113 -68.5s-131 -19.5 -257 -19.5c-126.667 0 -212.667 6.5 -258 19.5s-83 35.833 -113 68.5c-28 30.667 -48 68.5 -60 113.5s-18 116.833 -18 215.5v686
c0 98.667 5.83301 170.334 17.5 215.001s31.834 82.334 60.501 113.001c30.667 33.333 71.167 56.666 121.5 69.999s133.5 20 249.5 20c115.333 0 197.833 -6.66699 247.5 -20s89.834 -36.666 120.501 -69.999c28.667 -30.667 48.834 -68.334 60.501 -113.001
s17.5 -116.334 17.5 -215.001v-686zM831.997 1974l-313 -371h-142l197 371h258z" />
    <glyph glyph-name="Ocircumflex" unicode="&#xd4;" horiz-adv-x="1075" 
d="M631 350v783c0 41.333 -6.16699 69 -18.5 83s-36.833 21 -73.5 21c-37.333 0 -62.166 -7 -74.499 -21s-18.5 -41.667 -18.5 -83v-783c0 -42 6.16699 -69.833 18.5 -83.5s37.166 -20.5 74.499 -20.5c36.667 0 61.167 6.83301 73.5 20.5s18.5 41.5 18.5 83.5zM985 399
c0 -102 -5.66992 -174.833 -17.0029 -218.5s-31 -80.5 -59 -110.5c-30 -32.667 -67.667 -55.5 -113 -68.5s-131 -19.5 -257 -19.5c-126.667 0 -212.667 6.5 -258 19.5s-83 35.833 -113 68.5c-28 30.667 -48 68.5 -60 113.5s-18 116.833 -18 215.5v686
c0 98.667 5.83301 170.334 17.5 215.001s31.834 82.334 60.501 113.001c30.667 33.333 71.167 56.666 121.5 69.999s133.5 20 249.5 20c115.333 0 197.833 -6.66699 247.5 -20s89.834 -36.666 120.501 -69.999c28.667 -30.667 48.834 -68.334 60.501 -113.001
s17.5 -116.334 17.5 -215.001v-686zM223.997 1603l196 371h238l196 -371h-141l-174 219l-176 -219h-139z" />
    <glyph glyph-name="Otilde" unicode="&#xd5;" horiz-adv-x="1075" 
d="M631 350v783c0 41.333 -6.16699 69 -18.5 83s-36.833 21 -73.5 21c-37.333 0 -62.166 -7 -74.499 -21s-18.5 -41.667 -18.5 -83v-783c0 -42 6.16699 -69.833 18.5 -83.5s37.166 -20.5 74.499 -20.5c36.667 0 61.167 6.83301 73.5 20.5s18.5 41.5 18.5 83.5zM985 399
c0 -102 -5.66992 -174.833 -17.0029 -218.5s-31 -80.5 -59 -110.5c-30 -32.667 -67.667 -55.5 -113 -68.5s-131 -19.5 -257 -19.5c-126.667 0 -212.667 6.5 -258 19.5s-83 35.833 -113 68.5c-28 30.667 -48 68.5 -60 113.5s-18 116.833 -18 215.5v686
c0 98.667 5.83301 170.334 17.5 215.001s31.834 82.334 60.501 113.001c30.667 33.333 71.167 56.666 121.5 69.999s133.5 20 249.5 20c115.333 0 197.833 -6.66699 247.5 -20s89.834 -36.666 120.501 -69.999c28.667 -30.667 48.834 -68.334 60.501 -113.001
s17.5 -116.334 17.5 -215.001v-686zM855.997 1925c-17.333 -82.667 -42.999 -143.667 -76.999 -183s-77.667 -59 -131 -59c-14 0 -27 0.833008 -39 2.5s-24 4.5 -36 8.5l-87 24c-19.333 5.33301 -33.166 8.66602 -41.499 9.99902s-16.5 2 -24.5 2
c-22.667 0 -41 -6.66699 -55 -20s-25 -34.666 -33 -63.999h-110c16 83.333 40.667 144.5 74 183.5s76.666 58.5 129.999 58.5c13.333 0 27.166 -1.16699 41.499 -3.5s29.166 -5.83301 44.499 -10.5l92 -27c6.66699 -2 13.834 -3.5 21.501 -4.5s19.167 -1.5 34.5 -1.5
c22 0 40 7 54 21s24.667 35 32 63h110z" />
    <glyph glyph-name="Odieresis" unicode="&#xd6;" horiz-adv-x="1075" 
d="M631 350v783c0 41.333 -6.16699 69 -18.5 83s-36.833 21 -73.5 21c-37.333 0 -62.166 -7 -74.499 -21s-18.5 -41.667 -18.5 -83v-783c0 -42 6.16699 -69.833 18.5 -83.5s37.166 -20.5 74.499 -20.5c36.667 0 61.167 6.83301 73.5 20.5s18.5 41.5 18.5 83.5zM985 399
c0 -102 -5.66992 -174.833 -17.0029 -218.5s-31 -80.5 -59 -110.5c-30 -32.667 -67.667 -55.5 -113 -68.5s-131 -19.5 -257 -19.5c-126.667 0 -212.667 6.5 -258 19.5s-83 35.833 -113 68.5c-28 30.667 -48 68.5 -60 113.5s-18 116.833 -18 215.5v686
c0 98.667 5.83301 170.334 17.5 215.001s31.834 82.334 60.501 113.001c30.667 33.333 71.167 56.666 121.5 69.999s133.5 20 249.5 20c115.333 0 197.833 -6.66699 247.5 -20s89.834 -36.666 120.501 -69.999c28.667 -30.667 48.834 -68.334 60.501 -113.001
s17.5 -116.334 17.5 -215.001v-686zM599.997 1663v245h226v-245h-226zM251.997 1663v245h226v-245h-226z" />
    <glyph glyph-name="multiply" unicode="&#xd7;" horiz-adv-x="1706" 
d="M416 1202l450 -450l451 450l141 -139l-450 -453l450 -450l-141 -140l-451 451l-450 -451l-140 140l451 450l-451 453z" />
    <glyph glyph-name="Oslash" unicode="&#xd8;" horiz-adv-x="1075" 
d="M117 147c-9.33301 27.333 -16.167 57.834 -20.5 91.501s-6.5 87.167 -6.5 160.5v686c0 98.667 5.83301 170.334 17.5 215.001s31.834 82.334 60.501 113.001c30.667 33.333 71 56.666 121 69.999s133.333 20 250 20c77.333 0 135.666 -2.33301 174.999 -7
s75.666 -12.334 108.999 -23.001l84 153l148 -80l-105 -196c12.667 -24 21.667 -53.833 27 -89.5s8 -94.167 8 -175.5v-686c0 -168 -27.167 -279.5 -81.5 -334.5s-162.166 -82.5 -323.499 -82.5c-117.333 0 -197 2.66699 -239 8s-75.667 14.666 -101 27.999l-95 -178
l-149 84zM640.999 797.001l-207 -428v-25c0 -42.667 6.83301 -71 20.5 -85s41.834 -21 84.501 -21c41.333 0 68.666 7.16699 81.999 21.5s20 42.5 20 84.5v453zM433.999 717.001l207.001 426c-1.33301 42.667 -8.5 70.667 -21.5 84s-39.833 20 -80.5 20
c-42.667 0 -70.834 -7 -84.501 -21s-20.5 -42.333 -20.5 -85v-424z" />
    <glyph glyph-name="Ugrave" unicode="&#xd9;" horiz-adv-x="1067" 
d="M102 1485h347v-1131c0 -41.333 6 -69 18 -83s36.667 -21 74 -21c36.667 0 61.167 7 73.5 21s18.5 41.667 18.5 83v1131h332v-1006c0 -116 -6 -200.833 -18 -254.5s-32 -99.167 -60 -136.5c-30 -38.667 -70.833 -66 -122.5 -82s-129.167 -24 -232.5 -24
c-105.333 0 -183.333 8 -234 24s-90.667 43.333 -120 82c-27.333 36 -46.833 80.333 -58.5 133s-17.5 138.667 -17.5 258v1006zM242 1974h258l197 -371h-142z" />
    <glyph glyph-name="Uacute" unicode="&#xda;" horiz-adv-x="1067" 
d="M102 1485h347v-1131c0 -41.333 6 -69 18 -83s36.667 -21 74 -21c36.667 0 61.167 7 73.5 21s18.5 41.667 18.5 83v1131h332v-1006c0 -116 -6 -200.833 -18 -254.5s-32 -99.167 -60 -136.5c-30 -38.667 -70.833 -66 -122.5 -82s-129.167 -24 -232.5 -24
c-105.333 0 -183.333 8 -234 24s-90.667 43.333 -120 82c-27.333 36 -46.833 80.333 -58.5 133s-17.5 138.667 -17.5 258v1006zM828 1974l-313 -371h-142l197 371h258z" />
    <glyph glyph-name="Ucircumflex" unicode="&#xdb;" horiz-adv-x="1067" 
d="M102 1485h347v-1131c0 -41.333 6 -69 18 -83s36.667 -21 74 -21c36.667 0 61.167 7 73.5 21s18.5 41.667 18.5 83v1131h332v-1006c0 -116 -6 -200.833 -18 -254.5s-32 -99.167 -60 -136.5c-30 -38.667 -70.833 -66 -122.5 -82s-129.167 -24 -232.5 -24
c-105.333 0 -183.333 8 -234 24s-90.667 43.333 -120 82c-27.333 36 -46.833 80.333 -58.5 133s-17.5 138.667 -17.5 258v1006zM220 1603l196 371h238l196 -371h-141l-174 219l-176 -219h-139z" />
    <glyph glyph-name="Udieresis" unicode="&#xdc;" horiz-adv-x="1067" 
d="M102 1485h347v-1131c0 -41.333 6 -69 18 -83s36.667 -21 74 -21c36.667 0 61.167 7 73.5 21s18.5 41.667 18.5 83v1131h332v-1006c0 -116 -6 -200.833 -18 -254.5s-32 -99.167 -60 -136.5c-30 -38.667 -70.833 -66 -122.5 -82s-129.167 -24 -232.5 -24
c-105.333 0 -183.333 8 -234 24s-90.667 43.333 -120 82c-27.333 36 -46.833 80.333 -58.5 133s-17.5 138.667 -17.5 258v1006zM596 1663v245h226v-245h-226zM248 1663v245h226v-245h-226z" />
    <glyph glyph-name="Yacute" unicode="&#xdd;" horiz-adv-x="944" 
d="M301 0v481l-307 1004h350l143 -672l134 672h327l-301 -1004v-481h-346zM766 1974l-313 -371h-142l197 371h258z" />
    <glyph glyph-name="Thorn" unicode="&#xde;" horiz-adv-x="1034" 
d="M455 1012v-529h77c41.333 0 68.833 7.33301 82.5 22s20.5 43 20.5 85v315c0 41.333 -7 69.5 -21 84.5s-41.333 22.5 -82 22.5h-77zM504 1274c184 0 309.832 -27.832 377.499 -83.499s101.5 -154.834 101.5 -297.501v-301c0 -142 -33.667 -241 -101 -297
s-190.666 -84 -369.999 -84h-57v-211h-346v1485h346v-211h49z" />
    <glyph glyph-name="germandbls" unicode="&#xdf;" horiz-adv-x="999" 
d="M98 0l0.000976562 1147c0 124 31.833 215.667 95.5 275s161.5 89 293.5 89c130.667 0 226.5 -25.833 287.5 -77.5s91.5 -132.834 91.5 -243.501v-94c0 -76.667 -16.833 -135.667 -50.5 -177s-87.167 -69 -160.5 -83c97.333 -19.333 165 -52.166 203 -98.499
s57 -119.5 57 -219.5v-180c0 -120 -24.667 -208.333 -74 -265s-126.333 -85 -231 -85c-35.333 0 -64 2.16699 -86 6.5s-42.333 11.833 -61 22.5v241c3.33301 -1.33301 8.33301 -3.66602 15 -6.99902c23.333 -12 40.666 -18 51.999 -18c28 0 48 12 60 36s18 64.667 18 122
v133c0 56.667 -10.667 97.334 -32 122.001s-59 40.334 -113 47.001v247c45.333 2.66699 75.833 11.667 91.5 27s23.5 51.333 23.5 108v103c0 42.667 -6 71.334 -18 86.001s-35.667 22 -71 22c-34.667 0 -58 -7.33301 -70 -22s-18 -43.334 -18 -86.001v-1178h-303z" />
    <glyph glyph-name="agrave" unicode="&#xe0;" horiz-adv-x="915" 
d="M516 279v112c0 22.667 -6.5 40.334 -19.5 53.001s-31.167 19 -54.5 19s-41.333 -6.33301 -54 -19s-19 -30.334 -19 -53.001v-112c0 -23.333 6.33301 -41.166 19 -53.499s30.667 -18.5 54 -18.5s41.5 6.16699 54.5 18.5s19.5 30.166 19.5 53.499zM532 0
l0.000976562 84.001c-22.667 -36.667 -51.334 -62.834 -86.001 -78.501s-81 -23.5 -139 -23.5c-88 0 -149.5 20.667 -184.5 62s-52.5 115.333 -52.5 222v127c0 87.333 20 151.833 60 193.5s102.333 62.5 187 62.5c36.667 0 72 -5.16699 106 -15.5s65 -25.5 93 -45.5v155
c0 42.667 -4.83301 70.834 -14.5 84.501s-29.5 20.5 -59.5 20.5c-28.667 0 -47.667 -6.83301 -57 -20.5s-14 -41.834 -14 -84.501h-269v76c0 96 23.333 161.333 70 196s143 52 289 52c145.333 0 241.333 -17.333 288 -52s70 -100 70 -196v-819h-287zM184.001 1536h258
l197 -371h-142z" />
    <glyph glyph-name="aacute" unicode="&#xe1;" horiz-adv-x="915" 
d="M516 279v112c0 22.667 -6.5 40.334 -19.5 53.001s-31.167 19 -54.5 19s-41.333 -6.33301 -54 -19s-19 -30.334 -19 -53.001v-112c0 -23.333 6.33301 -41.166 19 -53.499s30.667 -18.5 54 -18.5s41.5 6.16699 54.5 18.5s19.5 30.166 19.5 53.499zM532 0
l0.000976562 84.001c-22.667 -36.667 -51.334 -62.834 -86.001 -78.501s-81 -23.5 -139 -23.5c-88 0 -149.5 20.667 -184.5 62s-52.5 115.333 -52.5 222v127c0 87.333 20 151.833 60 193.5s102.333 62.5 187 62.5c36.667 0 72 -5.16699 106 -15.5s65 -25.5 93 -45.5v155
c0 42.667 -4.83301 70.834 -14.5 84.501s-29.5 20.5 -59.5 20.5c-28.667 0 -47.667 -6.83301 -57 -20.5s-14 -41.834 -14 -84.501h-269v76c0 96 23.333 161.333 70 196s143 52 289 52c145.333 0 241.333 -17.333 288 -52s70 -100 70 -196v-819h-287zM770.001 1536l-313 -371
h-142l197 371h258z" />
    <glyph glyph-name="acircumflex" unicode="&#xe2;" horiz-adv-x="915" 
d="M516 279v112c0 22.667 -6.5 40.334 -19.5 53.001s-31.167 19 -54.5 19s-41.333 -6.33301 -54 -19s-19 -30.334 -19 -53.001v-112c0 -23.333 6.33301 -41.166 19 -53.499s30.667 -18.5 54 -18.5s41.5 6.16699 54.5 18.5s19.5 30.166 19.5 53.499zM532 0
l0.000976562 84.001c-22.667 -36.667 -51.334 -62.834 -86.001 -78.501s-81 -23.5 -139 -23.5c-88 0 -149.5 20.667 -184.5 62s-52.5 115.333 -52.5 222v127c0 87.333 20 151.833 60 193.5s102.333 62.5 187 62.5c36.667 0 72 -5.16699 106 -15.5s65 -25.5 93 -45.5v155
c0 42.667 -4.83301 70.834 -14.5 84.501s-29.5 20.5 -59.5 20.5c-28.667 0 -47.667 -6.83301 -57 -20.5s-14 -41.834 -14 -84.501h-269v76c0 96 23.333 161.333 70 196s143 52 289 52c145.333 0 241.333 -17.333 288 -52s70 -100 70 -196v-819h-287zM162.001 1165l196 371
h238l196 -371h-141l-174 219l-176 -219h-139z" />
    <glyph glyph-name="atilde" unicode="&#xe3;" horiz-adv-x="915" 
d="M516 279v112c0 22.667 -6.5 40.334 -19.5 53.001s-31.167 19 -54.5 19s-41.333 -6.33301 -54 -19s-19 -30.334 -19 -53.001v-112c0 -23.333 6.33301 -41.166 19 -53.499s30.667 -18.5 54 -18.5s41.5 6.16699 54.5 18.5s19.5 30.166 19.5 53.499zM532 0
l0.000976562 84.001c-22.667 -36.667 -51.334 -62.834 -86.001 -78.501s-81 -23.5 -139 -23.5c-88 0 -149.5 20.667 -184.5 62s-52.5 115.333 -52.5 222v127c0 87.333 20 151.833 60 193.5s102.333 62.5 187 62.5c36.667 0 72 -5.16699 106 -15.5s65 -25.5 93 -45.5v155
c0 42.667 -4.83301 70.834 -14.5 84.501s-29.5 20.5 -59.5 20.5c-28.667 0 -47.667 -6.83301 -57 -20.5s-14 -41.834 -14 -84.501h-269v76c0 96 23.333 161.333 70 196s143 52 289 52c145.333 0 241.333 -17.333 288 -52s70 -100 70 -196v-819h-287zM794.001 1487
c-17.333 -82.667 -42.999 -143.667 -76.999 -183s-77.667 -59 -131 -59c-14 0 -27 0.833008 -39 2.5s-24 4.5 -36 8.5l-87 24c-19.333 5.33301 -33.166 8.66602 -41.499 9.99902s-16.5 2 -24.5 2c-22.667 0 -41 -6.66699 -55 -20s-25 -34.666 -33 -63.999h-110
c16 83.333 40.667 144.5 74 183.5s76.666 58.5 129.999 58.5c13.333 0 27.166 -1.16699 41.499 -3.5s29.166 -5.83301 44.499 -10.5l92 -27c6.66699 -2 13.834 -3.5 21.501 -4.5s19.167 -1.5 34.5 -1.5c22 0 40 7 54 21s24.667 35 32 63h110z" />
    <glyph glyph-name="adieresis" unicode="&#xe4;" horiz-adv-x="915" 
d="M516 279v112c0 22.667 -6.5 40.334 -19.5 53.001s-31.167 19 -54.5 19s-41.333 -6.33301 -54 -19s-19 -30.334 -19 -53.001v-112c0 -23.333 6.33301 -41.166 19 -53.499s30.667 -18.5 54 -18.5s41.5 6.16699 54.5 18.5s19.5 30.166 19.5 53.499zM532 0
l0.000976562 84.001c-22.667 -36.667 -51.334 -62.834 -86.001 -78.501s-81 -23.5 -139 -23.5c-88 0 -149.5 20.667 -184.5 62s-52.5 115.333 -52.5 222v127c0 87.333 20 151.833 60 193.5s102.333 62.5 187 62.5c36.667 0 72 -5.16699 106 -15.5s65 -25.5 93 -45.5v155
c0 42.667 -4.83301 70.834 -14.5 84.501s-29.5 20.5 -59.5 20.5c-28.667 0 -47.667 -6.83301 -57 -20.5s-14 -41.834 -14 -84.501h-269v76c0 96 23.333 161.333 70 196s143 52 289 52c145.333 0 241.333 -17.333 288 -52s70 -100 70 -196v-819h-287zM538.001 1225v245h226
v-245h-226zM190.001 1225v245h226v-245h-226z" />
    <glyph glyph-name="aring" unicode="&#xe5;" horiz-adv-x="915" 
d="M356 1399c0 -34.667 11.832 -63.498 35.499 -86.498s52.834 -34.5 87.501 -34.5s63.834 11.667 87.501 35s35.5 52 35.5 86c0 33.333 -12 62.166 -36 86.499s-53 36.5 -87 36.5c-34.667 0 -63.834 -11.833 -87.501 -35.5s-35.5 -52.834 -35.5 -87.501zM212.999 1399
c0 74 25.833 136.833 77.5 188.5s114.5 77.5 188.5 77.5c74.667 0 137.667 -25.833 189 -77.5s77 -114.5 77 -188.5c0 -74.667 -25.667 -137.667 -77 -189s-114.333 -77 -189 -77s-137.667 25.667 -189 77s-77 114.333 -77 189zM515.999 279.002v112
c0 22.667 -6.5 40.334 -19.5 53.001s-31.167 19 -54.5 19s-41.333 -6.33301 -54 -19s-19 -30.334 -19 -53.001v-112c0 -23.333 6.33301 -41.166 19 -53.499s30.667 -18.5 54 -18.5s41.5 6.16699 54.5 18.5s19.5 30.166 19.5 53.499zM531.999 0.00195312l0.000976562 84.001
c-22.667 -36.667 -51.334 -62.834 -86.001 -78.501s-81 -23.5 -139 -23.5c-88 0 -149.5 20.667 -184.5 62s-52.5 115.333 -52.5 222v127c0 87.333 20 151.833 60 193.5s102.333 62.5 187 62.5c36.667 0 72 -5.16699 106 -15.5s65 -25.5 93 -45.5v155
c0 42.667 -4.83301 70.834 -14.5 84.501s-29.5 20.5 -59.5 20.5c-28.667 0 -47.667 -6.83301 -57 -20.5s-14 -41.834 -14 -84.501h-269v76c0 96 23.333 161.333 70 196s143 52 289 52c145.333 0 241.333 -17.333 288 -52s70 -100 70 -196v-819h-287z" />
    <glyph glyph-name="ae" unicode="&#xe6;" horiz-adv-x="1380" 
d="M639 94c-23.333 -40.667 -56.0029 -69.499 -98.0029 -86.499s-104.333 -25.5 -187 -25.5c-95.333 0 -164.166 22.167 -206.499 66.5s-63.5 116.833 -63.5 217.5v127c0 87.333 20.167 151.833 60.5 193.5s102.833 62.5 187.5 62.5c37.333 0 73.5 -5 108.5 -15
s69.167 -25.333 102.5 -46v155c0 42.667 -5.33301 70.834 -16 84.501s-32 20.5 -64 20.5c-29.333 0 -49.333 -6.33301 -60 -19s-16 -36.334 -16 -71.001v-15h-270v76c0 94 22.5 158.833 67.5 194.5s128.167 53.5 249.5 53.5c82 0 143.167 -6.16699 183.5 -18.5
s69.5 -32.833 87.5 -61.5c22 28.667 51.333 49.167 88 61.5s88.334 18.5 155.001 18.5c138.667 0 234.167 -29.333 286.5 -88s78.5 -167.334 78.5 -326.001v-204h-475v-132c0 -43.333 6.5 -72.5 19.5 -87.5s37.833 -22.5 74.5 -22.5s61.834 7 75.501 21
s21.167 41.667 22.5 83v23h283v-64c0 -106 -26.167 -180.5 -78.5 -223.5s-143.5 -64.5 -273.5 -64.5c-91.333 0 -162.5 8.83301 -213.5 26.5s-87.167 46.167 -108.5 85.5zM542.997 279.001l0.000976562 112c0 22 -7.33301 39.5 -22 52.5s-34 19.5 -58 19.5
s-43 -6.5 -57 -19.5s-21 -30.5 -21 -52.5v-112c0 -22.667 7.16699 -41 21.5 -55s33.166 -21 56.499 -21c24 0 43.333 7 58 21s22 32.333 22 55zM837.998 750.001v-95h192v95c0 40.667 -6.66699 68.167 -20 82.5s-39.333 21.5 -78 21.5c-38 0 -63.167 -6.66699 -75.5 -20
s-18.5 -41.333 -18.5 -84z" />
    <glyph glyph-name="ccedilla" unicode="&#xe7;" horiz-adv-x="877" 
d="M813 414l0.000976562 -107.001c0 -126 -23.667 -211.667 -71 -257s-138.333 -68 -273 -68c-156 0 -261.5 28.5 -316.5 85.5s-82.5 165.5 -82.5 325.5v260c0 160.667 27.667 269.834 83 327.501s160.666 86.5 315.999 86.5c134.667 0 225.667 -22.667 273 -68
s71 -131.333 71 -258v-51h-285v39c0 42 -5 70 -15 84s-29.333 21 -58 21c-29.333 0 -49 -7 -59 -21s-15 -42 -15 -84v-412c0 -41.333 5 -69 15 -83s29.667 -21 59 -21c28.667 0 48 7 58 21s15 41.667 15 83v97h285zM209.001 -438.001l0.000976562 129
c53.333 -14 101.666 -24.667 144.999 -32s80.333 -11 111 -11c34.667 0 60 5.83301 76 17.5s24 30.167 24 55.5s-9.33301 43.333 -28 54s-49.667 16 -93 16c-15.333 0 -27 -0.166992 -35 -0.5s-15.333 -0.833008 -22 -1.5v211h102v-90h15c78 0 136.667 -16 176 -48
s59 -79.667 59 -143c0 -66.667 -22 -116.667 -66 -150s-110 -50 -198 -50c-34 0 -73.833 3.66699 -119.5 11s-94.5 18 -146.5 32z" />
    <glyph glyph-name="egrave" unicode="&#xe8;" horiz-adv-x="934" 
d="M381 756l0.000976562 -100.999h192v101c0 44 -6 73 -18 87s-38 21 -78 21c-38.667 0 -64.334 -7.33301 -77.001 -22s-19 -43.334 -19 -86.001zM70.001 653.001c0 161.333 27.332 270.666 81.999 327.999s159.667 86 315 86c154.667 0 259.5 -28.667 314.5 -86
s82.5 -166.666 82.5 -327.999v-204h-483v-132c0 -42.667 6 -70.667 18 -84s36.667 -20 74 -20s62 7 74 21s18 41.667 18 83v23h299v-70c0 -110 -28.167 -185.5 -84.5 -226.5s-168.833 -61.5 -337.5 -61.5c-141.333 0 -238.666 29 -291.999 87s-80 166 -80 324v260zM174 1536
h258l197 -371h-142z" />
    <glyph glyph-name="eacute" unicode="&#xe9;" horiz-adv-x="934" 
d="M381 756l0.000976562 -100.999h192v101c0 44 -6 73 -18 87s-38 21 -78 21c-38.667 0 -64.334 -7.33301 -77.001 -22s-19 -43.334 -19 -86.001zM70.001 653.001c0 161.333 27.332 270.666 81.999 327.999s159.667 86 315 86c154.667 0 259.5 -28.667 314.5 -86
s82.5 -166.666 82.5 -327.999v-204h-483v-132c0 -42.667 6 -70.667 18 -84s36.667 -20 74 -20s62 7 74 21s18 41.667 18 83v23h299v-70c0 -110 -28.167 -185.5 -84.5 -226.5s-168.833 -61.5 -337.5 -61.5c-141.333 0 -238.666 29 -291.999 87s-80 166 -80 324v260zM760 1536
l-313 -371h-142l197 371h258z" />
    <glyph glyph-name="ecircumflex" unicode="&#xea;" horiz-adv-x="934" 
d="M381 756l0.000976562 -100.999h192v101c0 44 -6 73 -18 87s-38 21 -78 21c-38.667 0 -64.334 -7.33301 -77.001 -22s-19 -43.334 -19 -86.001zM70.001 653.001c0 161.333 27.332 270.666 81.999 327.999s159.667 86 315 86c154.667 0 259.5 -28.667 314.5 -86
s82.5 -166.666 82.5 -327.999v-204h-483v-132c0 -42.667 6 -70.667 18 -84s36.667 -20 74 -20s62 7 74 21s18 41.667 18 83v23h299v-70c0 -110 -28.167 -185.5 -84.5 -226.5s-168.833 -61.5 -337.5 -61.5c-141.333 0 -238.666 29 -291.999 87s-80 166 -80 324v260zM152 1165
l196 371h238l196 -371h-141l-174 219l-176 -219h-139z" />
    <glyph glyph-name="edieresis" unicode="&#xeb;" horiz-adv-x="934" 
d="M381 756l0.000976562 -100.999h192v101c0 44 -6 73 -18 87s-38 21 -78 21c-38.667 0 -64.334 -7.33301 -77.001 -22s-19 -43.334 -19 -86.001zM70.001 653.001c0 161.333 27.332 270.666 81.999 327.999s159.667 86 315 86c154.667 0 259.5 -28.667 314.5 -86
s82.5 -166.666 82.5 -327.999v-204h-483v-132c0 -42.667 6 -70.667 18 -84s36.667 -20 74 -20s62 7 74 21s18 41.667 18 83v23h299v-70c0 -110 -28.167 -185.5 -84.5 -226.5s-168.833 -61.5 -337.5 -61.5c-141.333 0 -238.666 29 -291.999 87s-80 166 -80 324v260zM528 1225
v245h226v-245h-226zM180 1225v245h226v-245h-226z" />
    <glyph glyph-name="igrave" unicode="&#xec;" horiz-adv-x="494" 
d="M397 0h-303v1049h303v-1049zM-45 1536h258l197 -371h-142z" />
    <glyph glyph-name="iacute" unicode="&#xed;" horiz-adv-x="494" 
d="M397 0h-303v1049h303v-1049zM541 1536l-313 -371h-142l197 371h258z" />
    <glyph glyph-name="icircumflex" unicode="&#xee;" horiz-adv-x="494" 
d="M397 0h-303v1049h303v-1049zM-67 1165l196 371h238l196 -371h-141l-174 219l-176 -219h-139z" />
    <glyph glyph-name="idieresis" unicode="&#xef;" horiz-adv-x="494" 
d="M397 0h-303v1049h303v-1049zM309 1225v245h226v-245h-226zM-39 1225v245h226v-245h-226z" />
    <glyph glyph-name="eth" unicode="&#xf0;" horiz-adv-x="934" 
d="M553 1489l49 -74.002l139 51l60 -135l-115 -39c60 -99.333 104 -200.333 132 -303s42 -215.334 42 -338.001v-233c0 -159.333 -25.333 -271.166 -76 -335.499s-138 -96.5 -262 -96.5h-116c-124 0 -211.333 32 -262 96s-76 176 -76 336v217
c0 149.333 23.667 258.333 71 327s121.666 103 222.999 103c48.667 0 89.5 -10 122.5 -30s65.5 -55 97.5 -105c-15.333 48.667 -33.166 96.334 -53.499 143.001s-43.5 92.334 -69.5 137.001l-234 -82l-53 134l213 75l-92 152h260zM551 728.998
c0 42.667 -5.49902 70.832 -16.499 84.499s-33.5 20.5 -67.5 20.5s-56.833 -7.16699 -68.5 -21.5s-17.5 -42.166 -17.5 -83.499v-412c0 -42 5.66699 -69.833 17 -83.5s34.333 -20.5 69 -20.5c33.333 0 55.666 7 66.999 21s17 41.667 17 83v412z" />
    <glyph glyph-name="ntilde" unicode="&#xf1;" horiz-adv-x="944" 
d="M94 0l-0.000976562 1049h283v-136c30.667 54.667 65.834 94 105.501 118s89.167 36 148.5 36c82 0 139.333 -22.5 172 -67.5s49 -128.833 49 -251.5v-748h-303v731c0 37.333 -5.5 62.666 -16.5 75.999s-30.833 20 -59.5 20s-48.5 -6.66699 -59.5 -20
s-16.5 -38.666 -16.5 -75.999v-731h-303zM789.999 1487c-17.333 -82.667 -42.999 -143.667 -76.999 -183s-77.667 -59 -131 -59c-14 0 -27 0.833008 -39 2.5s-24 4.5 -36 8.5l-87 24c-19.333 5.33301 -33.166 8.66602 -41.499 9.99902s-16.5 2 -24.5 2
c-22.667 0 -41 -6.66699 -55 -20s-25 -34.666 -33 -63.999h-110c16 83.333 40.667 144.5 74 183.5s76.666 58.5 129.999 58.5c13.333 0 27.166 -1.16699 41.499 -3.5s29.166 -5.83301 44.499 -10.5l92 -27c6.66699 -2 13.834 -3.5 21.501 -4.5s19.167 -1.5 34.5 -1.5
c22 0 40 7 54 21s24.667 35 32 63h110z" />
    <glyph glyph-name="ograve" unicode="&#xf2;" horiz-adv-x="934" 
d="M381 729l0.000976562 -412.001c0 -41.333 5.66699 -69 17 -83s34.333 -21 69 -21c33.333 0 55.666 7 66.999 21s17 41.667 17 83v412c0 42 -5.5 70 -16.5 84s-33.5 21 -67.5 21s-56.833 -7.16699 -68.5 -21.5s-17.5 -42.166 -17.5 -83.499zM70.001 652.999
c0 161.333 27.333 270.665 82 327.998s159.667 86 315 86c154.667 0 259.5 -28.667 314.5 -86s82.5 -166.666 82.5 -327.999v-260c0 -160 -27.333 -268.5 -82 -325.5s-159.667 -85.5 -315 -85.5s-260.333 28.333 -315 85s-82 165.334 -82 326.001v260zM174.001 1536h258
l197 -371h-142z" />
    <glyph glyph-name="oacute" unicode="&#xf3;" horiz-adv-x="934" 
d="M381 729l0.000976562 -412.001c0 -41.333 5.66699 -69 17 -83s34.333 -21 69 -21c33.333 0 55.666 7 66.999 21s17 41.667 17 83v412c0 42 -5.5 70 -16.5 84s-33.5 21 -67.5 21s-56.833 -7.16699 -68.5 -21.5s-17.5 -42.166 -17.5 -83.499zM70.001 652.999
c0 161.333 27.333 270.665 82 327.998s159.667 86 315 86c154.667 0 259.5 -28.667 314.5 -86s82.5 -166.666 82.5 -327.999v-260c0 -160 -27.333 -268.5 -82 -325.5s-159.667 -85.5 -315 -85.5s-260.333 28.333 -315 85s-82 165.334 -82 326.001v260zM760.001 1536
l-313 -371h-142l197 371h258z" />
    <glyph glyph-name="ocircumflex" unicode="&#xf4;" horiz-adv-x="934" 
d="M381 729l0.000976562 -412.001c0 -41.333 5.66699 -69 17 -83s34.333 -21 69 -21c33.333 0 55.666 7 66.999 21s17 41.667 17 83v412c0 42 -5.5 70 -16.5 84s-33.5 21 -67.5 21s-56.833 -7.16699 -68.5 -21.5s-17.5 -42.166 -17.5 -83.499zM70.001 652.999
c0 161.333 27.333 270.665 82 327.998s159.667 86 315 86c154.667 0 259.5 -28.667 314.5 -86s82.5 -166.666 82.5 -327.999v-260c0 -160 -27.333 -268.5 -82 -325.5s-159.667 -85.5 -315 -85.5s-260.333 28.333 -315 85s-82 165.334 -82 326.001v260zM152.001 1165l196 371
h238l196 -371h-141l-174 219l-176 -219h-139z" />
    <glyph glyph-name="otilde" unicode="&#xf5;" horiz-adv-x="934" 
d="M381 729l0.000976562 -412.001c0 -41.333 5.66699 -69 17 -83s34.333 -21 69 -21c33.333 0 55.666 7 66.999 21s17 41.667 17 83v412c0 42 -5.5 70 -16.5 84s-33.5 21 -67.5 21s-56.833 -7.16699 -68.5 -21.5s-17.5 -42.166 -17.5 -83.499zM70.001 652.999
c0 161.333 27.333 270.665 82 327.998s159.667 86 315 86c154.667 0 259.5 -28.667 314.5 -86s82.5 -166.666 82.5 -327.999v-260c0 -160 -27.333 -268.5 -82 -325.5s-159.667 -85.5 -315 -85.5s-260.333 28.333 -315 85s-82 165.334 -82 326.001v260zM784.001 1487
c-17.333 -82.667 -42.999 -143.667 -76.999 -183s-77.667 -59 -131 -59c-14 0 -27 0.833008 -39 2.5s-24 4.5 -36 8.5l-87 24c-19.333 5.33301 -33.166 8.66602 -41.499 9.99902s-16.5 2 -24.5 2c-22.667 0 -41 -6.66699 -55 -20s-25 -34.666 -33 -63.999h-110
c16 83.333 40.667 144.5 74 183.5s76.666 58.5 129.999 58.5c13.333 0 27.166 -1.16699 41.499 -3.5s29.166 -5.83301 44.499 -10.5l92 -27c6.66699 -2 13.834 -3.5 21.501 -4.5s19.167 -1.5 34.5 -1.5c22 0 40 7 54 21s24.667 35 32 63h110z" />
    <glyph glyph-name="odieresis" unicode="&#xf6;" horiz-adv-x="934" 
d="M381 729l0.000976562 -412.001c0 -41.333 5.66699 -69 17 -83s34.333 -21 69 -21c33.333 0 55.666 7 66.999 21s17 41.667 17 83v412c0 42 -5.5 70 -16.5 84s-33.5 21 -67.5 21s-56.833 -7.16699 -68.5 -21.5s-17.5 -42.166 -17.5 -83.499zM70.001 652.999
c0 161.333 27.333 270.665 82 327.998s159.667 86 315 86c154.667 0 259.5 -28.667 314.5 -86s82.5 -166.666 82.5 -327.999v-260c0 -160 -27.333 -268.5 -82 -325.5s-159.667 -85.5 -315 -85.5s-260.333 28.333 -315 85s-82 165.334 -82 326.001v260zM528.001 1225v245h226
v-245h-226zM180.001 1225v245h226v-245h-226z" />
    <glyph glyph-name="divide" unicode="&#xf7;" horiz-adv-x="1706" 
d="M854 369c41.333 0 77 -15 107 -45s45 -65.667 45 -107c0 -40.667 -15 -75.667 -45 -105s-65.667 -44 -107 -44c-42 0 -77.833 14.333 -107.5 43s-44.5 64 -44.5 106s14.833 77.833 44.5 107.5s65.5 44.5 107.5 44.5zM254 711h1198v-199h-1198v199zM854 1155
c41.333 0 77 -14.833 107 -44.5s45 -65.167 45 -106.5c0 -42 -14.833 -77.833 -44.5 -107.5s-65.5 -44.5 -107.5 -44.5s-77.833 14.833 -107.5 44.5s-44.5 65.5 -44.5 107.5s14.833 77.667 44.5 107s65.5 44 107.5 44z" />
    <glyph glyph-name="oslash" unicode="&#xf8;" horiz-adv-x="934" 
d="M569 567l-204 -336c8 -14.667 18.667 -25.167 32 -31.5s36 -9.5 68 -9.5c41.333 0 69 7.66699 83 23s21 45.333 21 90v264zM358 461l207 340c-4 21.333 -13.5 36.5 -28.5 45.5s-38.833 13.5 -71.5 13.5c-43.333 0 -72 -7.5 -86 -22.5s-21 -44.833 -21 -89.5v-287zM2 -57
l113.002 172c-16 28.667 -27.5 64.834 -34.5 108.501s-10.5 100.167 -10.5 169.5v260c0 161.333 27.333 270.666 82 327.999s159.667 86 315 86c61.333 0 109.666 -2.66699 144.999 -8s67.666 -14.333 96.999 -27l94 144l125 -84l-107 -168
c14.667 -28 25.5 -63.833 32.5 -107.5s10.5 -98.167 10.5 -163.5v-260c0 -160 -27.333 -268.5 -82 -325.5s-159.667 -85.5 -315 -85.5c-70 0 -120.667 2.5 -152 7.5s-60 13.167 -86 24.5l-98 -155z" />
    <glyph glyph-name="ugrave" unicode="&#xf9;" horiz-adv-x="944" 
d="M852 1049v-1049h-285v133c-30 -54 -64.833 -92.667 -104.5 -116s-89.5 -35 -149.5 -35c-82 0 -139.333 22.333 -172 67s-49 128.667 -49 252v748h305v-732c0 -37.333 5.33301 -62.666 16 -75.999s30 -20 58 -20c28.667 0 48.5 6.83301 59.5 20.5s16.5 38.834 16.5 75.501
v732h305zM180 1536h258l197 -371h-142z" />
    <glyph glyph-name="uacute" unicode="&#xfa;" horiz-adv-x="944" 
d="M852 1049v-1049h-285v133c-30 -54 -64.833 -92.667 -104.5 -116s-89.5 -35 -149.5 -35c-82 0 -139.333 22.333 -172 67s-49 128.667 -49 252v748h305v-732c0 -37.333 5.33301 -62.666 16 -75.999s30 -20 58 -20c28.667 0 48.5 6.83301 59.5 20.5s16.5 38.834 16.5 75.501
v732h305zM766 1536l-313 -371h-142l197 371h258z" />
    <glyph glyph-name="ucircumflex" unicode="&#xfb;" horiz-adv-x="944" 
d="M852 1049v-1049h-285v133c-30 -54 -64.833 -92.667 -104.5 -116s-89.5 -35 -149.5 -35c-82 0 -139.333 22.333 -172 67s-49 128.667 -49 252v748h305v-732c0 -37.333 5.33301 -62.666 16 -75.999s30 -20 58 -20c28.667 0 48.5 6.83301 59.5 20.5s16.5 38.834 16.5 75.501
v732h305zM158 1165l196 371h238l196 -371h-141l-174 219l-176 -219h-139z" />
    <glyph glyph-name="udieresis" unicode="&#xfc;" horiz-adv-x="944" 
d="M852 1049v-1049h-285v133c-30 -54 -64.833 -92.667 -104.5 -116s-89.5 -35 -149.5 -35c-82 0 -139.333 22.333 -172 67s-49 128.667 -49 252v748h305v-732c0 -37.333 5.33301 -62.666 16 -75.999s30 -20 58 -20c28.667 0 48.5 6.83301 59.5 20.5s16.5 38.834 16.5 75.501
v732h305zM534 1225v245h226v-245h-226zM186 1225v245h226v-245h-226z" />
    <glyph glyph-name="yacute" unicode="&#xfd;" horiz-adv-x="858" 
d="M172 0l-137.001 1049h303l94 -897l103 897h292l-145 -975c-28 -187.333 -66.167 -310.666 -114.5 -369.999s-123.5 -89 -225.5 -89c-24 0 -49.667 2.16699 -77 6.5s-57.666 11.166 -90.999 20.499v213c16.667 -4.66699 31.667 -8 45 -10s25 -3 35 -3
c44 0 77.833 13 101.5 39s37.5 65.667 41.5 119h-225zM722.999 1536l-313 -371h-142l197 371h258z" />
    <glyph glyph-name="thorn" unicode="&#xfe;" horiz-adv-x="952" 
d="M403 729v-412.001c0 -42.667 5.16699 -70.667 15.5 -84s30.5 -20 60.5 -20c29.333 0 49 6.66699 59 20s15 41.333 15 84v412c0 42.667 -5 70.834 -15 84.501s-29.667 20.5 -59 20.5c-30 0 -50.167 -7 -60.5 -21s-15.5 -42 -15.5 -84zM100 1511h302.999v-565
c24 40.667 55 71 93 91s83.667 30 137 30c84.667 0 144.667 -25.5 180 -76.5s53 -138.833 53 -263.5v-405c0 -126.667 -17 -215 -51 -265s-92 -75 -174 -75c-56.667 0 -104.167 11.333 -142.5 34s-70.166 59 -95.499 109v-508h-303v1894z" />
    <glyph glyph-name="ydieresis" unicode="&#xff;" horiz-adv-x="858" 
d="M172 0l-137.001 1049h303l94 -897l103 897h292l-145 -975c-28 -187.333 -66.167 -310.666 -114.5 -369.999s-123.5 -89 -225.5 -89c-24 0 -49.667 2.16699 -77 6.5s-57.666 11.166 -90.999 20.499v213c16.667 -4.66699 31.667 -8 45 -10s25 -3 35 -3
c44 0 77.833 13 101.5 39s37.5 65.667 41.5 119h-225zM490.999 1225v245h226v-245h-226zM142.999 1225v245h226v-245h-226z" />
    <glyph glyph-name="Cacute" unicode="&#x106;" horiz-adv-x="999" 
d="M616 983l-0.000976562 150c0 42 -5.66699 69.833 -17 83.5s-34.333 20.5 -69 20.5c-34 0 -56.5 -6.66699 -67.5 -20s-16.5 -41.333 -16.5 -84v-783c0 -42.667 5.5 -70.667 16.5 -84s33.5 -20 67.5 -20c34.667 0 57.667 6.83301 69 20.5s17 41.5 17 83.5v203h316v-154
c0 -100 -5.16699 -172.167 -15.5 -216.5s-27.833 -81.833 -52.5 -112.5c-26 -32.667 -59.5 -55.5 -100.5 -68.5s-115.833 -19.5 -224.5 -19.5c-126.667 0 -212.667 6.5 -258 19.5s-83 35.833 -113 68.5c-28 30.667 -48 68.5 -60 113.5s-18 116.833 -18 215.5v686
c0 98.667 5.83301 170.334 17.5 215.001s31.834 82.334 60.501 113.001c30.667 33.333 71.167 56.666 121.5 69.999s133.5 20 249.5 20c99.333 0 171.5 -6.5 216.5 -19.5s80.5 -35.833 106.5 -68.5c25.333 -30.667 43.333 -68.834 54 -114.501s16 -117.5 16 -215.5v-102
h-316zM796.999 1974l-313 -371h-142l197 371h258z" />
    <glyph glyph-name="cacute" unicode="&#x107;" horiz-adv-x="877" 
d="M813 414l0.000976562 -107.001c0 -126 -23.667 -211.667 -71 -257s-138.333 -68 -273 -68c-156 0 -261.5 28.5 -316.5 85.5s-82.5 165.5 -82.5 325.5v260c0 160.667 27.667 269.834 83 327.501s160.666 86.5 315.999 86.5c134.667 0 225.667 -22.667 273 -68
s71 -131.333 71 -258v-51h-285v39c0 42 -5 70 -15 84s-29.333 21 -58 21c-29.333 0 -49 -7 -59 -21s-15 -42 -15 -84v-412c0 -41.333 5 -69 15 -83s29.667 -21 59 -21c28.667 0 48 7 58 21s15 41.667 15 83v97h285zM746.001 1536l-313 -371h-142l197 371h258z" />
    <glyph glyph-name="Ccaron" unicode="&#x10c;" horiz-adv-x="999" 
d="M616 983l-0.000976562 150c0 42 -5.66699 69.833 -17 83.5s-34.333 20.5 -69 20.5c-34 0 -56.5 -6.66699 -67.5 -20s-16.5 -41.333 -16.5 -84v-783c0 -42.667 5.5 -70.667 16.5 -84s33.5 -20 67.5 -20c34.667 0 57.667 6.83301 69 20.5s17 41.5 17 83.5v203h316v-154
c0 -100 -5.16699 -172.167 -15.5 -216.5s-27.833 -81.833 -52.5 -112.5c-26 -32.667 -59.5 -55.5 -100.5 -68.5s-115.833 -19.5 -224.5 -19.5c-126.667 0 -212.667 6.5 -258 19.5s-83 35.833 -113 68.5c-28 30.667 -48 68.5 -60 113.5s-18 116.833 -18 215.5v686
c0 98.667 5.83301 170.334 17.5 215.001s31.834 82.334 60.501 113.001c30.667 33.333 71.167 56.666 121.5 69.999s133.5 20 249.5 20c99.333 0 171.5 -6.5 216.5 -19.5s80.5 -35.833 106.5 -68.5c25.333 -30.667 43.333 -68.834 54 -114.501s16 -117.5 16 -215.5v-102
h-316zM188.999 1974h139l176 -217l174 217h141l-196 -371h-238z" />
    <glyph glyph-name="ccaron" unicode="&#x10d;" horiz-adv-x="877" 
d="M813 414l0.000976562 -107.001c0 -126 -23.667 -211.667 -71 -257s-138.333 -68 -273 -68c-156 0 -261.5 28.5 -316.5 85.5s-82.5 165.5 -82.5 325.5v260c0 160.667 27.667 269.834 83 327.501s160.666 86.5 315.999 86.5c134.667 0 225.667 -22.667 273 -68
s71 -131.333 71 -258v-51h-285v39c0 42 -5 70 -15 84s-29.333 21 -58 21c-29.333 0 -49 -7 -59 -21s-15 -42 -15 -84v-412c0 -41.333 5 -69 15 -83s29.667 -21 59 -21c28.667 0 48 7 58 21s15 41.667 15 83v97h285zM138.001 1536h139l176 -217l174 217h141l-196 -371h-238z
" />
    <glyph glyph-name="dcroat" unicode="&#x111;" horiz-adv-x="963" 
d="M854 1511l0.000976562 -165h109v-123h-109v-1223h-291v133c-35.333 -55.333 -72 -94.333 -110 -117s-84.667 -34 -140 -34c-82 0 -140.333 25 -175 75s-52 138.333 -52 265v405c0 125.333 17.833 213.333 53.5 264s95.5 76 179.5 76c55.333 0 101.666 -10 138.999 -30
s68.333 -51.667 93 -95v281h-287v123h287v165h303zM399.001 729v-412.001c0 -42 5 -69.833 15 -83.5s29.667 -20.5 59 -20.5c30 0 50.5 7 61.5 21s16.5 39 16.5 75v8v412c0 42 -5.16699 70 -15.5 84s-30.5 21 -60.5 21s-50.167 -7.16699 -60.5 -21.5
s-15.5 -42.166 -15.5 -83.499z" />
    <glyph glyph-name="Gbreve" unicode="&#x11e;" horiz-adv-x="1067" 
d="M977 807l-0.00195312 -408c0 -98.667 -5.83301 -170.5 -17.5 -215.5s-31.167 -82.833 -58.5 -113.5c-29.333 -32.667 -66.166 -55.5 -110.499 -68.5s-128.166 -19.5 -251.499 -19.5c-126.667 0 -212.667 6.5 -258 19.5s-83 35.833 -113 68.5
c-28 30.667 -48 68.5 -60 113.5s-18 116.833 -18 215.5v686c0 98.667 5.83301 170.334 17.5 215.001s31.834 82.334 60.501 113.001c30.667 33.333 71 56.666 121 69.999s133.333 20 250 20c109.333 0 189.166 -6.83301 239.499 -20.5s90.5 -36.834 120.5 -69.501
c27.333 -30 46.833 -67.333 58.5 -112s17.5 -116.667 17.5 -216v-77h-330v125c0 41.333 -6.83301 69 -20.5 83s-41.5 21 -83.5 21c-42.667 0 -70.834 -7 -84.501 -21s-20.5 -41.667 -20.5 -83v-783c0 -41.333 6.83301 -69 20.5 -83s41.834 -21 84.501 -21
c42 0 69.833 7 83.5 21s20.5 41.667 20.5 83v191h-98v266h430zM225.998 1941h122.999c4 -51.333 21 -89 51 -113s75 -36 135 -36s104.667 11.833 134 35.5s46 61.5 50 113.5h123c-7.33301 -104.667 -35.833 -181.667 -85.5 -231s-123.5 -74 -221.5 -74
s-172.167 25 -222.5 75s-79.166 126.667 -86.499 230z" />
    <glyph glyph-name="gbreve" unicode="&#x11f;" horiz-adv-x="952" 
d="M852 29c0 -159.333 -24.999 -268.167 -74.999 -326.5s-140.333 -87.5 -271 -87.5c-153.333 0 -256.5 20.667 -309.5 62s-79.5 117 -79.5 227v6h262c0 -29.333 6.16699 -49.666 18.5 -60.999s34.166 -17 65.499 -17c34 0 56.833 6.66699 68.5 20s17.5 41.666 17.5 84.999
v153c-32 -32.667 -65.333 -56.167 -100 -70.5s-76.334 -21.5 -125.001 -21.5c-89.333 0 -151.666 24.333 -186.999 73s-53 137.667 -53 267v389c0 125.333 17.667 213.333 53 264s95.333 76 180 76c58 0 107 -11.833 147 -35.5s73 -60.167 99 -109.5v127h289v-1020z
M549.001 327.999v401.001c0 42 -5.16699 70 -15.5 84s-30.5 21 -60.5 21s-50.167 -7 -60.5 -21s-15.5 -42 -15.5 -84v-401c0 -42 5.16699 -70 15.5 -84s30.5 -21 60.5 -21c30.667 0 51 6.66699 61 20s15 41.666 15 84.999zM168.001 1503h122.999c4 -51.333 21 -89 51 -113
s75 -36 135 -36s104.667 11.833 134 35.5s46 61.5 50 113.5h123c-7.33301 -104.667 -35.833 -181.667 -85.5 -231s-123.5 -74 -221.5 -74s-172.167 25 -222.5 75s-79.166 126.667 -86.499 230z" />
    <glyph glyph-name="Idotaccent" unicode="&#x130;" horiz-adv-x="580" 
d="M461 0h-346v1485h346v-1485zM174 1659v256h236v-256h-236z" />
    <glyph glyph-name="dotlessi" unicode="&#x131;" horiz-adv-x="494" 
d="M397 0h-303v1049h303v-1049z" />
    <glyph glyph-name="Lslash" unicode="&#x141;" horiz-adv-x="797" 
d="M119 0v580l-119 -74v184l119 78v717h346v-543l186 121v-189l-186 -118v-490h326v-266h-672z" />
    <glyph glyph-name="lslash" unicode="&#x142;" horiz-adv-x="522" 
d="M412 0h-303v610l-109 -69v141l109 70v759h303v-591l110 69v-139l-110 -74v-776z" />
    <glyph glyph-name="OE" unicode="&#x152;" horiz-adv-x="1370" 
d="M709 0l0.000976562 68c-22 -30.667 -52.833 -53 -92.5 -67s-91.5 -21 -155.5 -21c-138.667 0 -235.167 29.167 -289.5 87.5s-81.5 168.833 -81.5 331.5v686c0 162.667 27.167 273 81.5 331s152.166 87 293.499 87c57.333 0 106 -7 146 -21s72.667 -35.667 98 -65v68h575
v-266h-307v-328h289v-256h-289v-369h336v-266h-604zM631.001 350v783c0 41.333 -6.16699 69 -18.5 83s-36.833 21 -73.5 21c-37.333 0 -62.166 -7 -74.499 -21s-18.5 -41.667 -18.5 -83v-783c0 -42 6.16699 -69.833 18.5 -83.5s37.166 -20.5 74.499 -20.5
c36.667 0 61.167 6.83301 73.5 20.5s18.5 41.5 18.5 83.5z" />
    <glyph glyph-name="oe" unicode="&#x153;" horiz-adv-x="1389" 
d="M846 750l0.00195312 -95h192v95c0 41.333 -6.33301 69 -19 83s-38.334 21 -77.001 21s-64.334 -6.83301 -77.001 -20.5s-19 -41.5 -19 -83.5zM700.002 57c-18.667 -27.333 -45.834 -46.668 -81.501 -58.001s-91.5 -17 -167.5 -17c-149.333 0 -250.5 28.5 -303.5 85.5
s-79.5 165.5 -79.5 325.5v260c0 160.667 26.667 269.834 80 327.501s154.333 86.5 303 86.5c69.333 0 122.666 -6.16699 159.999 -18.5s70 -32.833 98 -61.5c23.333 28.667 54 49.167 92 61.5s90.333 18.5 157 18.5c139.333 0 235 -29.333 287 -88s78 -167.334 78 -326.001
v-204h-477v-132c0 -42 6.16699 -69.833 18.5 -83.5s37.5 -20.5 75.5 -20.5c39.333 0 65.333 7 78 21s19.334 41.667 20.001 83v23h285v-70c0 -108 -26.667 -183 -80 -225s-151.666 -63 -294.999 -63c-58.667 0 -106.667 5.83301 -144 17.5s-72 30.834 -104 57.501z
M369.002 744.998v-423c0 -43.333 5.83301 -72.333 17.5 -87s35.167 -22 70.5 -22s58.833 7.16699 70.5 21.5s17.5 43.5 17.5 87.5v423c0 42.667 -5.5 70.5 -16.5 83.5s-34.833 19.5 -71.5 19.5s-60.5 -6.83301 -71.5 -20.5s-16.5 -41.167 -16.5 -82.5z" />
    <glyph glyph-name="Scedilla" unicode="&#x15e;" horiz-adv-x="1020" 
d="M403 496l0.00195312 -144.001c0 -38.667 7.66699 -66 23 -82s41.333 -24 78 -24c40 0 67 7.66699 81 23s21 44.333 21 87v105c0 32 -2 55.667 -6 71s-10.667 29 -20 41c-22.667 27.333 -75 50 -157 68c-37.333 8 -66.333 15 -87 21c-96 27.333 -162 65.5 -198 114.5
s-54 126.167 -54 231.5v137c0 133.333 25.833 226.333 77.5 279s141.167 79 268.5 79h102c80 0 145.667 -6.83301 197 -20.5s91.666 -35.5 120.999 -65.5c23.333 -23.333 39.666 -53 48.999 -89s14 -93.667 14 -173v-115h-307v93c0 46.667 -6.16699 77.667 -18.5 93
s-37.5 23 -75.5 23c-36.667 0 -61.5 -7.16699 -74.5 -21.5s-19.5 -41.166 -19.5 -80.499v-96c0 -72.667 62 -124.667 186 -156c35.333 -9.33301 63.333 -17 84 -23c95.333 -26.667 160.833 -64 196.5 -112s53.5 -124 53.5 -228v-200c0 -124 -29.5 -213.333 -88.5 -268
s-155.167 -82 -288.5 -82h-92c-146.667 0 -247.5 25 -302.5 75s-82.5 142.333 -82.5 277v162h319zM281.002 -438.001l0.000976562 129c53.333 -14 101.666 -24.667 144.999 -32s80.333 -11 111 -11c34.667 0 60 5.83301 76 17.5s24 30.167 24 55.5s-9.33301 43.333 -28 54
s-49.667 16 -93 16c-15.333 0 -27 -0.166992 -35 -0.5s-15.333 -0.833008 -22 -1.5v211h102v-90h15c78 0 136.667 -16 176 -48s59 -79.667 59 -143c0 -66.667 -22 -116.667 -66 -150s-110 -50 -198 -50c-34 0 -73.833 3.66699 -119.5 11s-94.5 18 -146.5 32z" />
    <glyph glyph-name="scedilla" unicode="&#x15f;" horiz-adv-x="862" 
d="M70 326h274.001c0 -56 5.66699 -92.667 17 -110s33.666 -26 66.999 -26c28 0 48.333 6.16699 61 18.5s19 31.5 19 57.5v66c0 46.667 -51 79.667 -153 99c-38 6.66699 -68.333 12.667 -91 18c-78.667 18 -129.667 40.667 -153 68s-35 72.666 -35 135.999v123
c0 103.333 23 177.666 69 222.999s121.333 68 226 68h139c98.667 0 167.834 -18.167 207.501 -54.5s60.5 -101.833 62.5 -196.5v-75h-268v58c0 26.667 -5.66699 44.834 -17 54.501s-32.333 14.5 -63 14.5c-26.667 0 -47.334 -5.66699 -62.001 -17s-22 -27.333 -22 -48v-58
c0 -39.333 39 -66.666 117 -81.999c43.333 -8.66699 79 -16.667 107 -24c84 -14.667 142.167 -38.834 174.5 -72.501s48.5 -86.5 48.5 -158.5v-125c0 -114 -24.5 -192.667 -73.5 -236s-139.167 -65 -270.5 -65h-80c-114.667 0 -193.5 18.833 -236.5 56.5
s-64.5 106.834 -64.5 207.501v80zM203.001 -438l0.000976562 129c53.333 -14 101.666 -24.667 144.999 -32s80.333 -11 111 -11c34.667 0 60 5.83301 76 17.5s24 30.167 24 55.5s-9.33301 43.333 -28 54s-49.667 16 -93 16c-15.333 0 -27 -0.166992 -35 -0.5
s-15.333 -0.833008 -22 -1.5v211h102v-90h15c78 0 136.667 -16 176 -48s59 -79.667 59 -143c0 -66.667 -22 -116.667 -66 -150s-110 -50 -198 -50c-34 0 -73.833 3.66699 -119.5 11s-94.5 18 -146.5 32z" />
    <glyph glyph-name="Scaron" unicode="&#x160;" horiz-adv-x="1020" 
d="M403 496l0.00195312 -144.001c0 -38.667 7.66699 -66 23 -82s41.333 -24 78 -24c40 0 67 7.66699 81 23s21 44.333 21 87v105c0 32 -2 55.667 -6 71s-10.667 29 -20 41c-22.667 27.333 -75 50 -157 68c-37.333 8 -66.333 15 -87 21c-96 27.333 -162 65.5 -198 114.5
s-54 126.167 -54 231.5v137c0 133.333 25.833 226.333 77.5 279s141.167 79 268.5 79h102c80 0 145.667 -6.83301 197 -20.5s91.666 -35.5 120.999 -65.5c23.333 -23.333 39.666 -53 48.999 -89s14 -93.667 14 -173v-115h-307v93c0 46.667 -6.16699 77.667 -18.5 93
s-37.5 23 -75.5 23c-36.667 0 -61.5 -7.16699 -74.5 -21.5s-19.5 -41.166 -19.5 -80.499v-96c0 -72.667 62 -124.667 186 -156c35.333 -9.33301 63.333 -17 84 -23c95.333 -26.667 160.833 -64 196.5 -112s53.5 -124 53.5 -228v-200c0 -124 -29.5 -213.333 -88.5 -268
s-155.167 -82 -288.5 -82h-92c-146.667 0 -247.5 25 -302.5 75s-82.5 142.333 -82.5 277v162h319zM195.002 1974h139l176 -217l174 217h141l-196 -371h-238z" />
    <glyph glyph-name="scaron" unicode="&#x161;" horiz-adv-x="862" 
d="M70 326h274.001c0 -56 5.66699 -92.667 17 -110s33.666 -26 66.999 -26c28 0 48.333 6.16699 61 18.5s19 31.5 19 57.5v66c0 46.667 -51 79.667 -153 99c-38 6.66699 -68.333 12.667 -91 18c-78.667 18 -129.667 40.667 -153 68s-35 72.666 -35 135.999v123
c0 103.333 23 177.666 69 222.999s121.333 68 226 68h139c98.667 0 167.834 -18.167 207.501 -54.5s60.5 -101.833 62.5 -196.5v-75h-268v58c0 26.667 -5.66699 44.834 -17 54.501s-32.333 14.5 -63 14.5c-26.667 0 -47.334 -5.66699 -62.001 -17s-22 -27.333 -22 -48v-58
c0 -39.333 39 -66.666 117 -81.999c43.333 -8.66699 79 -16.667 107 -24c84 -14.667 142.167 -38.834 174.5 -72.501s48.5 -86.5 48.5 -158.5v-125c0 -114 -24.5 -192.667 -73.5 -236s-139.167 -65 -270.5 -65h-80c-114.667 0 -193.5 18.833 -236.5 56.5
s-64.5 106.834 -64.5 207.501v80zM117.001 1536h139l176 -217l174 217h141l-196 -371h-238z" />
    <glyph glyph-name="Ydieresis" unicode="&#x178;" horiz-adv-x="944" 
d="M301 0v481l-307 1004h350l143 -672l134 672h327l-301 -1004v-481h-346zM534 1663v245h226v-245h-226zM186 1663v245h226v-245h-226z" />
    <glyph glyph-name="Zcaron" unicode="&#x17d;" horiz-adv-x="848" 
d="M43 0v266l391 953h-354v266h715v-236l-400 -983h400v-266h-752zM109 1974h139l176 -217l174 217h141l-196 -371h-238z" />
    <glyph glyph-name="zcaron" unicode="&#x17e;" horiz-adv-x="735" 
d="M51 0v227l307 592h-282v230h592v-244l-306 -578h322v-227h-633zM54 1536h139l176 -217l174 217h141l-196 -371h-238z" />
    <glyph glyph-name="florin" unicode="&#x192;" 
d="M334 745l-163.999 -0.000976562v238h201c28.667 192.667 77.167 327.834 145.5 405.501s170.5 116.5 306.5 116.5c26 0 53.167 -0.833008 81.5 -2.5s58.5 -4.16699 90.5 -7.5v-244c-16 4 -31.667 7.16699 -47 9.5s-29.666 3.5 -42.999 3.5
c-60 0 -104.833 -20.667 -134.5 -62s-50.834 -114.333 -63.501 -219h178v-238h-217l-95 -602c-32 -202.667 -78.333 -342 -139 -418s-150 -114 -268 -114c-31.333 0 -62 2 -92 6s-60 10 -90 18v268c19.333 -8 38.166 -14.333 56.499 -19s35.5 -7 51.5 -7
c71.333 0 121 91 149 273l9 57z" />
    <glyph glyph-name="circumflex" unicode="&#x2c6;" 
d="M197 1165l196 371h238l196 -371h-141l-174 219l-176 -219h-139z" />
    <glyph glyph-name="caron" unicode="&#x2c7;" 
d="M197 1536h139l176 -217l174 217h141l-196 -371h-238z" />
    <glyph glyph-name="breve" unicode="&#x2d8;" 
d="M203 1503h122.999c4 -51.333 21 -89 51 -113s75 -36 135 -36s104.667 11.833 134 35.5s46 61.5 50 113.5h123c-7.33301 -104.667 -35.833 -181.667 -85.5 -231s-123.5 -74 -221.5 -74s-172.167 25 -222.5 75s-79.166 126.667 -86.499 230z" />
    <glyph glyph-name="dotaccent" unicode="&#x2d9;" 
d="M395 1221v256h236v-256h-236z" />
    <glyph glyph-name="ring" unicode="&#x2da;" 
d="M391 1413c0 -34.667 11.499 -63.833 34.499 -87.5s51.833 -35.5 86.5 -35.5s63.834 12 87.501 36s35.5 53 35.5 87s-12 62.667 -36 86s-53 35 -87 35c-34.667 0 -63.5 -11.5 -86.5 -34.5s-34.5 -51.833 -34.5 -86.5zM247.999 1413c0 74.667 25.501 137.667 76.501 189
s113.5 77 187.5 77c74.667 0 137.667 -25.833 189 -77.5s77 -114.5 77 -188.5c0 -74.667 -25.667 -137.667 -77 -189s-114.333 -77 -189 -77s-137.334 25.667 -188.001 77s-76 114.333 -76 189z" />
    <glyph glyph-name="ogonek" unicode="&#x2db;" 
d="M627 0c-42 -34 -73.667 -68.166 -95 -102.499s-32 -68.5 -32 -102.5c0 -26.667 6.66699 -46.667 20 -60s34 -20 62 -20h102v-174h-106c-78.667 0 -138 15.5 -178 46.5s-60 77.167 -60 138.5c0 47.333 15 92.666 45 135.999s78.333 89.333 145 138h97z" />
    <glyph glyph-name="tilde" unicode="&#x2dc;" 
d="M829 1487c-17.333 -82.667 -42.999 -143.667 -76.999 -183s-77.667 -59 -131 -59c-14 0 -27 0.833008 -39 2.5s-24 4.5 -36 8.5l-87 24c-19.333 5.33301 -33.166 8.66602 -41.499 9.99902s-16.5 2 -24.5 2c-22.667 0 -41 -6.66699 -55 -20s-25 -34.666 -33 -63.999h-110
c16 83.333 40.667 144.5 74 183.5s76.666 58.5 129.999 58.5c13.333 0 27.166 -1.16699 41.499 -3.5s29.166 -5.83301 44.499 -10.5l92 -27c6.66699 -2 13.834 -3.5 21.501 -4.5s19.167 -1.5 34.5 -1.5c22 0 40 7 54 21s24.667 35 32 63h110z" />
    <glyph glyph-name="hungarumlaut" unicode="&#x2dd;" 
d="M563 1165l154 371h229l-270 -371h-113zM295 1165l115 371h221l-232 -371h-104z" />
    <glyph glyph-name="Omega" unicode="&#x3a9;" horiz-adv-x="1575" 
d="M1227 256l291.001 -0.000976562v-256h-609v291c84 57.333 148 129.833 192 217.5s66 186.5 66 296.5c0 135.333 -33.833 241.833 -101.5 319.5s-160.834 116.5 -279.501 116.5c-118 0 -210.833 -38.833 -278.5 -116.5s-101.5 -184.167 -101.5 -319.5
c0 -109.333 22 -208.166 66 -296.499s108 -160.833 192 -217.5v-291h-609v256h291c-84 80.667 -146.333 167.334 -187 260.001s-61 193.667 -61 303c0 208.667 62.667 375.834 188 501.501s292 188.5 500 188.5c208.667 0 375.667 -62.833 501 -188.5
s188 -292.834 188 -501.501c0 -109.333 -20.333 -210.333 -61 -303s-103 -179.334 -187 -260.001z" />
    <glyph glyph-name="pi" unicode="&#x3c0;" horiz-adv-x="1319" 
d="M1354 1092l-39.001 -224h-176l-154 -868h-287l152 868h-238l-151 -868h-287l152 868h-25c-36.667 0 -64.667 -10.333 -84 -31s-32.333 -53.667 -39 -99l-213 -1c19.333 132.667 60.333 225 123 277s166.334 78 311.001 78h955z" />
    <glyph glyph-name="endash" unicode="&#x2013;" 
d="M0 436v199h1024v-199h-1024z" />
    <glyph glyph-name="emdash" unicode="&#x2014;" horiz-adv-x="2048" 
d="M0 635h2048v-199h-2048v199z" />
    <glyph glyph-name="quoteleft" unicode="&#x2018;" horiz-adv-x="512" 
d="M285 1184h118v-314h-294v336c0 97.333 24.167 170.666 72.5 219.999s120.833 75 217.5 77v-159c-40 -3.33301 -69.333 -15.166 -88 -35.499s-28 -51.833 -28 -94.5c0 -3.33301 0.333008 -8.5 1 -15.5s1 -11.833 1 -14.5z" />
    <glyph glyph-name="quoteright" unicode="&#x2019;" horiz-adv-x="512" 
d="M225 1169l-116 -0.00195312v316h292v-338c0 -97.333 -24.167 -170.666 -72.5 -219.999s-120.833 -75 -217.5 -77v160c40 2.66699 69.333 14.334 88 35.001s28 52 28 94c0 3.33301 -0.333008 8.5 -1 15.5s-1 11.833 -1 14.5z" />
    <glyph glyph-name="quotesinglbase" unicode="&#x201a;" horiz-adv-x="512" 
d="M225 12h-116v316h292v-338c0 -97.333 -24.167 -170.666 -72.5 -219.999s-120.833 -75 -217.5 -77v159c40 3.33301 69.333 15.166 88 35.499s28 51.833 28 94.5c0 3.33301 -0.333008 8.33301 -1 15s-1 11.667 -1 15z" />
    <glyph glyph-name="quotedblleft" unicode="&#x201c;" horiz-adv-x="901" 
d="M285 1184h116v-316h-292v338c0 97.333 24.167 170.666 72.5 219.999s120.833 75 217.5 77v-159c-40 -3.33301 -69.333 -15.166 -88 -35.499s-28 -51.833 -28 -94.5c0 -3.33301 0.333008 -8.5 1 -15.5s1 -11.833 1 -14.5zM672 1184l118.999 -0.000976562v-316h-293v338
c0 98 23.833 171.5 71.5 220.5s119.834 74.5 216.501 76.5v-159c-40 -3.33301 -69.333 -15.166 -88 -35.499s-28 -51.833 -28 -94.5c0 -3.33301 0.333008 -8.5 1 -15.5s1 -11.833 1 -14.5z" />
    <glyph glyph-name="quotedblright" unicode="&#x201d;" horiz-adv-x="901" 
d="M614 1169l-115.999 -0.000976562v316h293v-338c0 -97.333 -24.333 -170.666 -73 -219.999s-121.334 -75 -218.001 -77v159c40 3.33301 69.333 15.333 88 36s28 52 28 94c0 3.33301 -0.333008 8.5 -1 15.5s-1 11.833 -1 14.5zM225.001 1169l-116 -0.00195312v316h292v-338
c0 -97.333 -24.167 -170.666 -72.5 -219.999s-120.833 -75 -217.5 -77v160c40 2.66699 69.333 14.334 88 35.001s28 52 28 94c0 3.33301 -0.333008 8.5 -1 15.5s-1 11.833 -1 14.5z" />
    <glyph glyph-name="quotedblbase" unicode="&#x201e;" horiz-adv-x="901" 
d="M614 12h-115.999v316h293v-338c0 -97.333 -24.333 -170.666 -73 -219.999s-121.334 -75 -218.001 -77v159c40 3.33301 69.333 15.166 88 35.499s28 51.833 28 94.5c0 3.33301 -0.333008 8.33301 -1 15s-1 11.667 -1 15zM225.001 12h-116v316h292v-338
c0 -97.333 -24.167 -170.666 -72.5 -219.999s-120.833 -75 -217.5 -77v159c40 3.33301 69.333 15.166 88 35.499s28 51.833 28 94.5c0 3.33301 -0.333008 8.33301 -1 15s-1 11.667 -1 15z" />
    <glyph glyph-name="dagger" unicode="&#x2020;" horiz-adv-x="901" 
d="M295 -18v884h-180v275h180v344h309v-344h180v-275h-180v-884h-309z" />
    <glyph glyph-name="daggerdbl" unicode="&#x2021;" horiz-adv-x="901" 
d="M305 -18v352h-186v274h186v303h-186v277h186v297h293v-297h186v-277h-186v-303h186v-274h-186v-352h-293z" />
    <glyph glyph-name="bullet" unicode="&#x2022;" horiz-adv-x="1208" 
d="M307 762c0 82 28.999 151.666 86.999 208.999s128 86 210 86c81.333 0 150.833 -28.833 208.5 -86.5s86.5 -127.167 86.5 -208.5s-29.167 -151.166 -87.5 -209.499s-128.166 -87.5 -209.499 -87.5c-82 0 -151.667 29 -209 87s-86 128 -86 210z" />
    <glyph glyph-name="ellipsis" unicode="&#x2026;" horiz-adv-x="2048" 
d="M190 0v328h304v-328h-304zM872 0v328h304v-328h-304zM1556 0v328h304v-328h-304z" />
    <glyph glyph-name="perthousand" unicode="&#x2030;" horiz-adv-x="2556" 
d="M2261 313v285c0 42.667 -5.83301 70.667 -17.5 84s-35.167 20 -70.5 20s-58.833 -6.66699 -70.5 -20s-17.5 -41.333 -17.5 -84v-285c0 -42 5.83301 -69.833 17.5 -83.5s35.167 -20.5 70.5 -20.5s58.833 6.83301 70.5 20.5s17.5 41.5 17.5 83.5zM2492 295
c0 -123.333 -21.667 -206.333 -65 -249s-128 -64 -254 -64s-210.833 21.167 -254.5 63.5s-65.5 125.5 -65.5 249.5v321c0 124 21.667 207.333 65 250s128.333 64 255 64s211.5 -21.5 254.5 -64.5s64.5 -126.167 64.5 -249.5v-321zM1729 295
c0 -123.333 -21.833 -206.333 -65.5 -249s-128.5 -64 -254.5 -64s-210.667 21.167 -254 63.5s-65 125.5 -65 249.5v321c0 124 21.5 207.333 64.5 250s127.833 64 254.5 64s211.667 -21.5 255 -64.5s65 -126.167 65 -249.5v-321zM1499 313v285c0 42 -6 69.833 -18 83.5
s-36 20.5 -72 20.5c-35.333 0 -58.833 -6.66699 -70.5 -20s-17.5 -41.333 -17.5 -84v-285c0 -42 5.83301 -69.833 17.5 -83.5s35.167 -20.5 70.5 -20.5c36 0 60 7 72 21s18 41.667 18 83zM469 885v286c0 42.667 -5.83301 70.834 -17.5 84.501s-35.167 20.5 -70.5 20.5
s-58.833 -6.83301 -70.5 -20.5s-17.5 -41.834 -17.5 -84.501v-286c0 -42.667 5.83301 -70.834 17.5 -84.501s35.167 -20.5 70.5 -20.5s58.833 6.83301 70.5 20.5s17.5 41.834 17.5 84.501zM700 868c0 -123.333 -21.833 -206.667 -65.5 -250s-128.167 -65 -253.5 -65
s-210 21.5 -254 64.5s-66 126.5 -66 250.5v322c0 123.333 21.667 206.333 65 249s128.333 64 255 64s211.5 -21.5 254.5 -64.5s64.5 -125.833 64.5 -248.5v-322zM449 -18.001l710 1521h182l-708 -1521h-184z" />
    <glyph glyph-name="guilsinglleft" unicode="&#x2039;" horiz-adv-x="588" 
d="M227 201l-157 323l157 322h299l-151 -322l162 -323h-310z" />
    <glyph glyph-name="guilsinglright" unicode="&#x203a;" horiz-adv-x="588" 
d="M360 846l158 -322l-158 -323h-299l152 323l-162 322h309z" />
    <glyph glyph-name="franc" unicode="&#x20a3;" horiz-adv-x="1610" 
d="M109 0v1485h651v-266h-305v-369h276v-266h-276v-584h-346zM909 0v1049h283v-115c26.667 46.667 57.334 80.5 92.001 101.5s77.667 31.5 129 31.5c63.333 0 108.166 -16.167 134.499 -48.5s39.5 -87.833 39.5 -166.5v-231h-252v110c0 37.333 -4.5 62.666 -13.5 75.999
s-24.833 20 -47.5 20c-23.333 0 -39.5 -6.33301 -48.5 -19s-13.5 -38.334 -13.5 -77.001v-731h-303z" />
    <glyph glyph-name="trademark" unicode="&#x2122;" horiz-adv-x="1706" 
d="M803 1462h196l127 -332l123 332h197v-547h-135v410l-154 -410h-61l-158 410v-410h-135v547zM207 1462h485v-112h-168v-435h-149v435h-168v112z" />
    <glyph glyph-name="partialdiff" unicode="&#x2202;" horiz-adv-x="1094" 
d="M762 662c12.667 66 22.3311 128.834 28.998 188.501s10 111.5 10 155.5c0 66.667 -8.66699 119.167 -26 157.5s-40.666 57.5 -69.999 57.5s-78 -24.333 -146 -73s-121.333 -73 -160 -73c-28 0 -51.667 10 -71 30s-29 44.333 -29 73c0 42.667 28.833 82 86.5 118
s127.834 54 210.501 54c128 0 231 -53.833 309 -161.5s117 -251.834 117 -432.501c0 -226 -52.167 -412.667 -156.5 -560s-236.5 -221 -396.5 -221c-114 0 -208 38.167 -282 114.5s-111 173.5 -111 291.5c0 132 38.667 241.833 116 329.5s173 131.5 287 131.5
c68 0 124.667 -14.5 170 -43.5s83 -74.5 113 -136.5zM699.997 518.001c0 77.333 -12.835 136.667 -38.502 178s-62.5 62 -110.5 62c-67.333 0 -123.166 -44.667 -167.499 -134s-66.5 -203 -66.5 -341c0 -78 12.833 -137.167 38.5 -177.5s62.834 -60.5 111.501 -60.5
c67.333 0 123 44.5 167 133.5s66 202.167 66 339.5z" />
    <glyph glyph-name="Delta" unicode="&#x2206;" horiz-adv-x="1427" 
d="M713 1110l-326 -854h653zM563 1473h301l563 -1473h-1427z" />
    <glyph glyph-name="product" unicode="&#x220f;" horiz-adv-x="1612" 
d="M150 1473h1308v-1866h-344v1577h-620v-1577h-344v1866z" />
    <glyph glyph-name="summation" unicode="&#x2211;" horiz-adv-x="1470" 
d="M66 1473h1308v-265h-878l620 -645l-622 -690h933v-266h-1386v172l698 772l-673 690v232z" />
    <glyph glyph-name="minus" unicode="&#x2212;" horiz-adv-x="1706" 
d="M254 713h1198v-203h-1198v203z" />
    <glyph glyph-name="fraction" unicode="&#x2215;" horiz-adv-x="342" 
d="M-342 -18l836 1521h188l-834 -1521h-190z" />
    <glyph glyph-name="periodcentered" unicode="&#x2219;" horiz-adv-x="512" 
d="M80 741c0 48.667 17.165 90.334 51.498 125.001s75.833 52 124.5 52s89.834 -17.333 123.501 -52s50.5 -76.334 50.5 -125.001s-16.667 -89.834 -50 -123.501s-74.666 -50.5 -123.999 -50.5c-48.667 0 -90.167 16.833 -124.5 50.5s-51.5 74.834 -51.5 123.501z" />
    <glyph glyph-name="radical" unicode="&#x221a;" horiz-adv-x="1346" 
d="M1141 1694h207v-129h-103l-592 -1606h-100l-311 858l-140 -51l-30 113l331 116l236 -661z" />
    <glyph glyph-name="infinity" unicode="&#x221e;" horiz-adv-x="1706" 
d="M942 561c30 -50 65.5 -87.667 106.5 -113s87.5 -38 139.5 -38c62.667 0 113.5 18.5 152.5 55.5s58.5 85.167 58.5 144.5c0 58 -18 105.667 -54 143s-81 56 -135 56c-50 0 -96 -19.167 -138 -57.5s-85.333 -101.833 -130 -190.5zM766 659
c-29.333 50 -64.5 87.499 -105.5 112.499s-87.833 37.5 -140.5 37.5c-62.667 0 -113.5 -18.667 -152.5 -56s-58.5 -85.666 -58.5 -144.999c0 -56.667 18 -103.834 54 -141.501s81 -56.5 135 -56.5c50 0 96 19.333 138 58s85.333 102.334 130 191.001zM858 456.999
c-45.333 -88 -94.165 -152.999 -146.498 -194.999s-110.5 -63 -174.5 -63c-93.333 0 -172 39.167 -236 117.5s-96 176.166 -96 293.499c0 122.667 28.5 221.667 85.5 297s131.5 113 223.5 113c61.333 0 118 -20 170 -60s106.667 -106 164 -198
c45.333 88 94.666 153.333 147.999 196s111.666 64 174.999 64c92.667 0 171.167 -39.5 235.5 -118.5s96.5 -176.833 96.5 -293.5c0 -122 -28.667 -220.667 -86 -296s-131.666 -113 -222.999 -113c-62 0 -118.833 19.5 -170.5 58.5s-106.834 104.833 -165.501 197.5z" />
    <glyph glyph-name="integral" unicode="&#x222b;" horiz-adv-x="1186" 
d="M342 -252c68 0 108.334 213 121.001 639c2 90.667 4 161 6 211c10.667 338.667 51.667 582.667 123 732s180.666 224 327.999 224c65.333 0 117.833 -16.333 157.5 -49s59.5 -75.667 59.5 -129c0 -40 -12.667 -72.167 -38 -96.5s-58.666 -36.5 -99.999 -36.5
c-30.667 0 -56.334 8 -77.001 24s-34.334 38.667 -41.001 68c-3.33301 13.333 -5.66602 31.333 -6.99902 54c-2 30.667 -12 46.334 -30 47.001c-66 0 -105.667 -211 -119 -633l-6 -178c-7.33301 -197.333 -17.666 -345.5 -30.999 -444.5s-33 -182.5 -59 -250.5
c-37.333 -98.667 -86.833 -173.834 -148.5 -225.501s-133.167 -77.5 -214.5 -77.5c-64 0 -116.167 16.333 -156.5 49s-60.5 75 -60.5 127c0 41.333 13 74.333 39 99s61 37 105 37c33.333 0 61.666 -10.5 84.999 -31.5s35 -44.833 35 -71.5c0 -38.667 2 -63 6 -73
s11.667 -15 23 -15z" />
    <glyph glyph-name="approxequal" unicode="&#x2248;" horiz-adv-x="1706" 
d="M1530 596l-0.00292969 -219c-70.667 -48 -136.667 -83.167 -198 -105.5s-121.666 -33.5 -180.999 -33.5c-63.333 0 -158.833 22.167 -286.5 66.5s-228.167 66.5 -301.5 66.5c-56 0 -114.167 -12.333 -174.5 -37s-130.5 -65 -210.5 -121v219
c74 48.667 142.833 84.667 206.5 108s123.834 35 180.501 35c82.667 0 187.834 -21.833 315.501 -65.5s219.167 -65.5 274.5 -65.5c57.333 0 115.333 11.833 174 35.5s125.667 62.5 201 116.5zM1530 1008l0.000976562 -220c-70.667 -47.333 -136.167 -82 -196.5 -104
s-120.5 -33 -180.5 -33c-62.667 0 -158 21.833 -286 65.5s-229.333 65.5 -304 65.5c-54.667 0 -111.334 -11.667 -170.001 -35s-130.334 -64 -215.001 -122v219c71.333 47.333 139.333 83 204 107s125.667 36 183 36c83.333 0 188.833 -21.833 316.5 -65.5
s218.834 -65.5 273.501 -65.5c56 0 113 11.667 171 35s126 62.333 204 117z" />
    <glyph glyph-name="notequal" unicode="&#x2260;" horiz-adv-x="1706" 
d="M1198 1233l148 -119l-154 -192h260v-191h-389l-191 -239h580v-193h-707l-245 -309l-148 119l154 190h-252v193h377l190 239h-567v191h696z" />
    <glyph glyph-name="lessequal" unicode="&#x2264;" horiz-adv-x="1706" 
d="M258 195h1192v-197h-1192v197zM1448 1241v-209l-834 -264l834 -262v-209l-1190 385v174z" />
    <glyph glyph-name="greaterequal" unicode="&#x2265;" horiz-adv-x="1706" 
d="M258 195h1192v-197h-1192v197zM260 1241l1188 -385v-174l-1188 -385v209l832 262l-832 264v209z" />
    <glyph glyph-name="lozenge" unicode="&#x25ca;" horiz-adv-x="1012" 
d="M506 1409l-385 -817l385 -825l385 825zM506 1653l500 -1061l-500 -1069l-500 1069z" />
    <glyph glyph-name="apple" unicode="&#xf000;" horiz-adv-x="1618" 
d="M836 1216c-0.666992 4 -1.16699 8.66895 -1.5 14.002s-0.5 13 -0.5 23c0 82.667 31.667 159.167 95 229.5s142 114.166 236 131.499c0.666992 -6.66699 1.16699 -14.334 1.5 -23.001s0.5 -21.667 0.5 -39c0 -87.333 -34.5 -165.5 -103.5 -234.5
s-136.833 -103.5 -203.5 -103.5h-8c-2 0 -4.5 0.333008 -7.5 1s-5.83301 1 -8.5 1zM1505 403.002c-76 -164.667 -144.336 -278.834 -205.003 -342.501s-128.667 -95.5 -204 -95.5c-33.333 0 -77.166 11 -131.499 33s-95.166 33 -122.499 33c-30 0 -73.667 -11 -131 -33
s-99.666 -33 -126.999 -33c-42.667 0 -85.5 14.667 -128.5 44s-86.167 73.333 -129.5 132c-68 93.333 -120.5 191.833 -157.5 295.5s-55.5 203.834 -55.5 300.501c0 146 41.667 264.833 125 356.5s191 137.5 323 137.5c45.333 0 97 -11.333 155 -34s99.333 -34 124 -34
c22.667 0 63.167 11.667 121.5 35s109.166 35 152.499 35c73.333 0 139.333 -13.333 198 -40s112.334 -68 161.001 -124c-68 -43.333 -118.5 -91.833 -151.5 -145.5s-49.5 -114.5 -49.5 -182.5c0 -75.333 20 -142 60 -200s97.667 -104 173 -138z" />
    <glyph glyph-name="fi" unicode="&#xf001;" horiz-adv-x="1110" 
d="M711 1270v241h303v-241h-303zM1014 0h-303v1049h303v-1049zM141 0l0.000976562 819h-96v230h96v151c0 113.333 24 193.5 72 240.5s129.333 70.5 244 70.5c23.333 0 46.166 -0.666992 68.499 -2s44.5 -3.33301 66.5 -6v-223c-1.33301 0 -3.66602 0.333008 -6.99902 1
c-16.667 2 -28.667 3 -36 3c-34.667 0 -60.834 -8 -78.501 -24s-26.5 -40 -26.5 -72v-139h148v-230h-148v-819h-303z" />
    <glyph glyph-name="fl" unicode="&#xf002;" horiz-adv-x="1114" 
d="M1014 0h-303v1511h303v-1511zM141 0l0.000976562 819h-96v230h96v151c0 113.333 24 193.5 72 240.5s129.333 70.5 244 70.5c23.333 0 46.166 -0.666992 68.499 -2s44.5 -3.33301 66.5 -6v-223c-1.33301 0 -3.66602 0.333008 -6.99902 1c-16.667 2 -28.667 3 -36 3
c-34.667 0 -60.834 -8 -78.501 -24s-26.5 -40 -26.5 -72v-139h148v-230h-148v-819h-303z" />
    <glyph glyph-name=".null" horiz-adv-x="0" 
 />
    <glyph glyph-name="nonmarkingreturn" horiz-adv-x="512" 
 />
    </font>
</defs>
</svg>
